<?xml version="1.0" standalone="no"?>
<!DOCTYPE svg PUBLIC "-//W3C//DTD SVG 1.1//EN" "http://www.w3.org/Graphics/SVG/1.1/DTD/svg11.dtd" >
<svg xmlns="http://www.w3.org/2000/svg">
<metadata>Generated by IcoMoon</metadata>
<defs>
<font id="telicon" horiz-adv-x="1024">
<font-face units-per-em="1024" ascent="960" descent="-64" />
<missing-glyph horiz-adv-x="1024" />
<glyph unicode="&#x20;" horiz-adv-x="512" d="" />
<glyph unicode="&#xe900;" glyph-name="account-jump" d="M455.111 113.778h-170.667v227.556h170.667c31.289 0 56.889 25.6 56.889 56.889s-25.6 56.889-56.889 56.889h-170.667v113.778c0 31.289-25.6 56.889-56.889 56.889s-56.889-25.6-56.889-56.889v-512c0-31.289 25.6-56.889 56.889-56.889h227.556c31.289 0 56.889 25.6 56.889 56.889s-25.6 56.889-56.889 56.889zM512 796.444c0-31.289-25.6-56.889-56.889-56.889h-398.222c-31.289 0-56.889 25.6-56.889 56.889v113.778c0 31.289 25.6 56.889 56.889 56.889h398.222c31.289 0 56.889-25.6 56.889-56.889v-113.778zM1024 341.333c0-31.289-25.6-56.889-56.889-56.889h-284.444c-31.289 0-56.889 25.6-56.889 56.889v113.778c0 31.289 25.6 56.889 56.889 56.889h284.444c31.289 0 56.889-25.6 56.889-56.889v-113.778zM1024 0c0-31.289-25.6-56.889-56.889-56.889h-284.444c-31.289 0-56.889 25.6-56.889 56.889v113.778c0 31.289 25.6 56.889 56.889 56.889h284.444c31.289 0 56.889-25.6 56.889-56.889v-113.778z" />
<glyph unicode="&#xe901;" glyph-name="account-settings" d="M625.778 682.667c0-31.289-25.6-56.889-56.889-56.889h-455.111c-31.289 0-56.889 25.6-56.889 56.889v56.889c0 31.289 25.6 56.889 56.889 56.889h455.111c31.289 0 56.889-25.6 56.889-56.889v-56.889zM967.111 682.667c0-31.289-25.6-56.889-56.889-56.889h-113.778c-31.289 0-56.889 25.6-56.889 56.889v56.889c0 31.289 25.6 56.889 56.889 56.889h113.778c31.289 0 56.889-25.6 56.889-56.889v-56.889zM625.778 111.445c0-31.289-25.6-56.889-56.889-56.889h-455.111c-31.289 0-56.889 25.6-56.889 56.889v56.889c0 31.289 25.6 56.889 56.889 56.889h455.111c31.289 0 56.889-25.6 56.889-56.889v-56.889zM967.111 111.445c0-31.289-25.6-56.889-56.889-56.889h-113.778c-31.289 0-56.889 25.6-56.889 56.889v56.889c0 31.289 25.6 56.889 56.889 56.889h113.778c31.289 0 56.889-25.6 56.889-56.889v-56.889zM967.111 398.222c0-31.289-25.6-56.889-56.889-56.889h-455.111c-31.289 0-56.889 25.6-56.889 56.889v56.889c0 31.289 25.6 56.889 56.889 56.889h455.111c31.289 0 56.889-25.6 56.889-56.889v-56.889zM284.444 398.222c0-31.289-25.6-56.889-56.889-56.889h-113.778c-31.289 0-56.889 25.6-56.889 56.889v56.889c0 31.289 25.6 56.889 56.889 56.889h113.778c31.289 0 56.889-25.6 56.889-56.889v-56.889z" />
<glyph unicode="&#xe902;" glyph-name="account" d="M625.778 796.444c0-31.289-25.6-56.889-56.889-56.889h-113.778c-31.289 0-56.889 25.6-56.889 56.889v0c0 31.289 25.6 56.889 56.889 56.889h113.778c31.289 0 56.889-25.6 56.889-56.889v0zM967.111 796.444h-256c-15.644 0-28.444-12.8-28.444-28.444s12.8-28.444 28.444-28.444h227.556c15.644 0 28.444-12.8 28.444-28.444v-568.889c0-15.644-12.8-28.444-28.444-28.444h-853.333c-15.644 0-28.444 12.8-28.444 28.444v568.889c0 15.644 12.8 28.444 28.444 28.444h227.556c15.644 0 28.444 12.8 28.444 28.444s-12.8 28.444-28.444 28.444h-256c-31.289 0-56.889-25.6-56.889-56.889v-625.778c0-31.289 25.6-56.889 56.889-56.889h910.222c31.289 0 56.889 25.6 56.889 56.889v625.778c0 31.289-25.6 56.889-56.889 56.889zM512 279.267c0-16.384-5.916-28.672-17.692-38.172-11.833-9.444-27.477-13.54-47.104-13.54h-211.74c-19.627 0-35.328 4.096-47.104 13.54-11.776 9.5-17.692 22.13-17.692 38.571 0 7.225 0.284 14.108 0.796 20.992 0.569 6.884 1.764 14.165 3.47 22.187 1.593 8.135 3.812 15.417 6.372 22.244 2.617 6.884 6.144 13.426 10.468 20.025 4.324 6.428 9.387 12.004 15.019 16.498 5.689 4.608 12.572 8.306 20.708 10.923 8.192 2.788 17.18 4.096 27.022 4.096 1.479 0 4.892-1.365 10.183-4.267 5.291-3.015 11.321-6.201 17.977-9.956 6.827-3.584 15.474-6.884 26.226-9.785 10.809-2.958 21.561-4.38 32.427-4.38s21.675 1.422 32.37 4.38c10.752 2.901 19.456 6.144 26.169 9.785 6.77 3.698 12.743 6.94 18.091 9.956 5.291 2.901 8.704 4.324 10.183 4.324 9.842 0 18.887-1.365 27.022-4.153 8.192-2.617 15.076-6.258 20.708-10.923 5.689-4.437 10.695-10.012 15.019-16.555 4.324-6.485 7.851-13.141 10.411-20.025s4.722-14.108 6.428-22.187c1.707-8.135 2.901-15.417 3.413-22.414 0.569-6.827 0.853-13.995 0.853-21.163zM426.667 483.555c0-23.552-8.306-43.691-24.974-60.245-16.668-16.782-36.75-25.088-60.359-25.088-23.552 0-43.691 8.306-60.359 25.088-16.668 16.555-24.974 36.693-24.974 60.245s8.306 43.691 24.974 60.302c16.668 16.668 36.807 25.031 60.359 25.031 23.609 0 43.691-8.363 60.359-25.031 16.668-16.612 24.974-36.75 24.974-60.302zM853.333 483.555c0-15.701-12.743-28.444-28.444-28.444h-170.667c-15.701 0-28.444 12.743-28.444 28.444v0c0 15.701 12.743 28.444 28.444 28.444h170.667c15.701 0 28.444-12.743 28.444-28.444v0zM853.333 312.889c0-15.701-12.743-28.444-28.444-28.444h-170.667c-15.701 0-28.444 12.743-28.444 28.444v0c0 15.701 12.743 28.444 28.444 28.444h170.667c15.701 0 28.444-12.743 28.444-28.444v0z" />
<glyph unicode="&#xe903;" glyph-name="add-credit" d="M227.556 398.222h56.889v-113.778h-56.889v113.778zM113.778 398.222h56.889v-113.778h-56.889v113.778zM768 455.111c-141.369 0-256-114.574-256-256 0-141.312 114.631-256 256-256s256 114.688 256 256c0 141.426-114.631 256-256 256zM910.222 170.667h-113.778v-113.778h-56.889v113.778h-113.778v56.889h113.778v113.778h56.889v-113.778h113.778v-56.889zM455.111 227.555h-369.778c-15.644 0-28.444 12.8-28.444 28.444v312.889h682.667v-56.889h56.889v284.444c0 31.289-25.6 56.889-56.889 56.889h-682.667c-31.289 0-56.889-25.6-56.889-56.889v-568.889c0-31.289 25.6-56.889 56.889-56.889h398.222v56.889zM56.889 768c0 15.644 12.8 28.444 28.444 28.444h625.778c15.644 0 28.444-12.8 28.444-28.444v-85.333h-682.667v85.333z" />
<glyph unicode="&#xe904;" glyph-name="add-user" d="M711.111 455.111c-141.369 0-256-114.631-256-256s114.631-256 256-256 256 114.631 256 256-114.631 256-256 256zM853.333 170.667h-113.778v-113.778h-56.889v113.778h-113.778v56.889h113.778v113.778h56.889v-113.778h113.778v-56.889zM595.684 777.387c0-52.395-18.489-97.052-55.58-134.087-37.092-37.092-81.749-55.637-134.144-55.637-52.338 0-97.109 18.546-134.087 55.637-37.092 37.035-55.637 81.692-55.637 134.087s18.546 97.052 55.58 134.144c37.035 37.092 81.749 55.58 134.144 55.58s97.109-18.489 134.144-55.58c37.092-37.092 55.58-81.749 55.58-134.144zM689.778 512c12.743 0 24.917-2.105 37.148-3.755-4.665 12.345-9.444 24.633-16.156 36.523-8.875 15.644-19.115 29.013-30.663 40.050-11.492 10.98-25.543 19.854-42.212 26.453-10.468 4.096-21.788 6.428-33.564 8.021-47.161-57.173-118.5-93.639-198.372-93.639s-151.211 36.466-198.315 93.639c-11.776-1.536-23.154-3.868-33.564-8.021-16.668-6.599-30.777-15.417-42.325-26.453-11.492-11.036-21.732-24.348-30.606-40.050s-15.986-31.687-21.276-48.128c-5.234-16.498-9.614-34.361-13.084-53.589-3.47-19.285-5.803-37.262-6.94-53.874-1.195-16.612-1.764-33.678-1.764-51.086 0-39.538 12.060-61.952 36.068-84.935 24.121-22.926 56.036-25.6 95.915-25.6h215.268c0 157.127 127.374 284.444 284.444 284.444z" />
<glyph unicode="&#xe905;" glyph-name="apps" d="M284.444 739.555c0-31.289-25.6-56.889-56.889-56.889h-113.778c-31.289 0-56.889 25.6-56.889 56.889v113.778c0 31.289 25.6 56.889 56.889 56.889h113.778c31.289 0 56.889-25.6 56.889-56.889v-113.778zM284.444 398.222c0-31.289-25.6-56.889-56.889-56.889h-113.778c-31.289 0-56.889 25.6-56.889 56.889v113.778c0 31.289 25.6 56.889 56.889 56.889h113.778c31.289 0 56.889-25.6 56.889-56.889v-113.778zM284.444 56.889c0-31.289-25.6-56.889-56.889-56.889h-113.778c-31.289 0-56.889 25.6-56.889 56.889v113.778c0 31.289 25.6 56.889 56.889 56.889h113.778c31.289 0 56.889-25.6 56.889-56.889v-113.778zM967.111 739.555c0-31.289-25.6-56.889-56.889-56.889h-113.778c-31.289 0-56.889 25.6-56.889 56.889v113.778c0 31.289 25.6 56.889 56.889 56.889h113.778c31.289 0 56.889-25.6 56.889-56.889v-113.778zM967.111 398.222c0-31.289-25.6-56.889-56.889-56.889h-113.778c-31.289 0-56.889 25.6-56.889 56.889v113.778c0 31.289 25.6 56.889 56.889 56.889h113.778c31.289 0 56.889-25.6 56.889-56.889v-113.778zM967.111 56.889c0-31.289-25.6-56.889-56.889-56.889h-113.778c-31.289 0-56.889 25.6-56.889 56.889v113.778c0 31.289 25.6 56.889 56.889 56.889h113.778c31.289 0 56.889-25.6 56.889-56.889v-113.778zM625.778 739.555c0-31.289-25.6-56.889-56.889-56.889h-113.778c-31.289 0-56.889 25.6-56.889 56.889v113.778c0 31.289 25.6 56.889 56.889 56.889h113.778c31.289 0 56.889-25.6 56.889-56.889v-113.778zM625.778 398.222c0-31.289-25.6-56.889-56.889-56.889h-113.778c-31.289 0-56.889 25.6-56.889 56.889v113.778c0 31.289 25.6 56.889 56.889 56.889h113.778c31.289 0 56.889-25.6 56.889-56.889v-113.778zM625.778 56.889c0-31.289-25.6-56.889-56.889-56.889h-113.778c-31.289 0-56.889 25.6-56.889 56.889v113.778c0 31.289 25.6 56.889 56.889 56.889h113.778c31.289 0 56.889-25.6 56.889-56.889v-113.778z" />
<glyph unicode="&#xe906;" glyph-name="arrow-down" d="M454.599 739.043v-431.559l-129.877 129.934c-22.244 22.187-58.311 22.187-80.498 0-22.244-22.3-22.3-58.254 0-80.498l227.044-226.987c22.244-22.244 58.197-22.244 80.441 0l228.011 228.011c22.3 22.244 22.3 58.197 0 80.441-22.244 22.244-58.197 22.244-80.441 0l-130.901-130.844v431.502c0 31.46-25.429 56.889-56.889 56.889s-56.889-25.429-56.889-56.889z" />
<glyph unicode="&#xe907;" glyph-name="arrow-left" d="M796.444 512h-431.559l129.877 129.934c22.244 22.244 22.244 58.311 0 80.498-22.244 22.244-58.197 22.3-80.441 0l-226.987-227.044c-22.244-22.244-22.244-58.197 0-80.441l228.011-228.011c22.244-22.3 58.197-22.3 80.441 0 22.244 22.244 22.244 58.197 0 80.441l-130.844 130.901h431.502c31.46 0 56.889 25.429 56.889 56.889s-25.429 56.832-56.889 56.832z" />
<glyph unicode="&#xe908;" glyph-name="arrow-right" d="M227.556 397.141h431.559l-129.934-129.877c-22.244-22.244-22.244-58.311 0-80.498 22.244-22.244 58.254-22.3 80.498 0l226.987 227.044c22.244 22.244 22.244 58.197 0 80.441l-228.011 228.011c-22.244 22.3-58.197 22.3-80.441 0-22.244-22.244-22.244-58.197 0-80.441l130.844-130.901h-431.502c-31.46 0-56.889-25.429-56.889-56.889s25.429-56.889 56.889-56.889z" />
<glyph unicode="&#xe909;" glyph-name="arrow-up" d="M569.401 170.155v431.559l129.877-129.877c22.244-22.244 58.311-22.244 80.498 0 22.244 22.244 22.3 58.197 0 80.441l-227.044 226.987c-22.244 22.244-58.197 22.244-80.441 0l-228.011-228.011c-22.3-22.244-22.3-58.197 0-80.441 22.244-22.244 58.197-22.244 80.441 0l130.901 130.844v-431.502c0-31.46 25.429-56.889 56.889-56.889s56.889 25.429 56.889 56.889z" />
<glyph unicode="&#xe90a;" glyph-name="assign" d="M512 625.778c0 31.403-25.486 56.889-56.889 56.889s-56.889-25.486-56.889-56.889v-227.556c0-31.46 25.486-56.889 56.889-56.889h227.556c31.46 0 56.889 25.429 56.889 56.889 0 31.403-25.429 56.889-56.889 56.889h-90.169l331.548 331.605c22.13 22.13 22.13 58.311 0 80.441h-0.057c-22.13 22.13-58.311 22.13-80.441 0l-331.548-331.548v90.169zM938.667 0h-853.333c-15.701 0-28.444 12.743-28.444 28.444v853.333c0 15.701 12.743 28.444 28.444 28.444h398.222c15.701 0 28.444-12.743 28.444-28.444s-12.743-28.444-28.444-28.444h-369.778v-796.444h796.444v369.778c0 15.701 12.743 28.444 28.444 28.444s28.444-12.743 28.444-28.444v-398.222c0-15.701-12.743-28.444-28.444-28.444z" />
<glyph unicode="&#xe90b;" glyph-name="ata" d="M0 625.778v-398.222h1024v398.222h-1024zM227.556 341.333h-113.778v227.556h113.778v-227.556zM455.111 341.333h-113.778v227.556h113.778v-227.556zM881.778 398.222c-47.161 0-85.333 38.229-85.333 85.333s38.172 85.333 85.333 85.333 85.333-38.229 85.333-85.333c0-47.104-38.172-85.333-85.333-85.333z" />
<glyph unicode="&#xe90c;" glyph-name="available-balance" d="M1024 423.765c0 198.997-203.776 372.679-455.111 372.679-74.354 0-144.612-16.612-206.336-51.769-40.164 52.508-114.802 109.113-119.865 108.658-9.159-0.796-15.132-11.719-15.132-31.915v-159.915c-47.161-42.325-81.749-92.615-99.612-149.504h-71.054c-31.289 0-56.889-26.055-56.889-57.344v-113.778c0-31.289 25.6-56.434 56.889-56.434h92.444c29.639-56.889 76.459-104.391 135.111-141.653v-86.357c0-31.289 25.6-56.434 56.889-56.434h56.889c31.289 0 56.889 25.145 56.889 56.434v18.887c0 0 42.667-18.432 113.778-18.432 63.090 0 113.778 18.432 113.778 18.432v-18.887c0-31.289 25.6-56.434 56.889-56.434h56.889c31.289 0 56.889 25.145 56.889 56.434v86.357c103.936 66.048 170.667 167.31 170.667 280.974zM227.556 512c0 31.403 25.486 56.889 56.889 56.889 31.46 0 56.889-25.486 56.889-56.889 0-31.46-25.429-56.889-56.889-56.889-31.403 0-56.889 25.429-56.889 56.889zM625.778 284.444v-56.889h-56.889v56.889h0.341c-63.545 0-89.998 24.405-89.998 24.405l17.010 66.844 8.192-5.404c13.369-8.476 40.619-22.812 75.947-22.812 28.786 0 47.445 13.426 47.445 34.247 0 16.668-8.988 30.777-51.541 46.99-46.592 17.863-91.819 41.301-91.819 101.035 0 49.607 31.915 96.028 84.764 96.028h-0.341v56.889h56.889v-56.889h-3.584c52.964 0 72.306-14.962 72.306-14.962l-18.318-63.716-8.135 4.949c-13.426 7.168-34.133 18.318-66.332 18.318-25.884 0-41.188-11.036-41.188-29.81 0-16.441 14.62-27.876 57.628-45.34 61.326-24.235 88.69-56.092 88.69-107.292 0.171-51.029-31.744-103.481-84.651-103.481h3.584z" />
<glyph unicode="&#xe90d;" glyph-name="billing-history" d="M682.667 284.444h170.667v-56.889h-170.667v56.889zM682.667 170.667h170.667v-56.889h-170.667v56.889zM512.967 97.28v-40.391h-42.439v40.391c-51.086 0-72.306 18.489-72.306 18.489l13.653 50.005 6.542-3.925c10.752-6.258 32.597-16.896 60.928-16.896 23.154 0 38.059 9.956 38.059 25.429 0 12.402-7.168 22.983-41.358 35.1-37.319 13.312-73.614 32.939-73.614 77.483 0 36.921 25.6 64.853 68.039 73.671v39.765h42.439v-39.765c42.439-1.707 57.97-13.255 57.97-13.255l-14.677-48.583-6.542 3.186c-10.752 5.348-27.364 13.426-53.134 13.426-20.821 0-33.052-8.363-33.052-22.357 0-12.345 11.776-20.878 46.251-33.906 49.152-18.034 71.111-42.155 71.111-80.384 0.171-38.002-25.429-69.006-67.868-77.483zM85.333 170.667c-15.701 0-28.444 12.743-28.444 28.444v739.556c0 15.701 12.743 28.444 28.444 28.444h455.111c15.701 0 28.444-12.743 28.444-28.444s-12.743-28.444-28.444-28.444h-426.667v-711.111c0-15.701-12.743-28.444-28.444-28.444zM966.542 511.431l-227.442 227.669 0.455 0.455h-426.667c-15.701 0-28.444-12.743-28.444-28.444v-739.556c0-15.701 12.743-28.444 28.444-28.444h625.778c15.701 0 28.444 12.743 28.444 28.444v540.444l-0.569-0.569zM739.556 660.423l147.456-148.423h-147.456v148.423zM910.222 0h-568.889v682.667h341.333c0-72.135 0-188.359 0-199.111 0-15.644 12.8-28.444 28.444-28.444 10.695 0 126.976 0 199.111 0v-455.111zM199.111 56.889c-15.701 0-28.444 12.743-28.444 28.444v739.556c0 15.701 12.743 28.444 28.444 28.444h455.111c15.701 0 28.444-12.743 28.444-28.444s-12.743-28.444-28.444-28.444h-426.667v-711.111c0-15.701-12.743-28.444-28.444-28.444z" />
<glyph unicode="&#xe90e;" glyph-name="billing" d="M568.889 398.222h227.556v-56.889h-227.556v56.889zM568.889 284.444h227.556v-56.889h-227.556v56.889zM567.979 967.111h-397.312c-31.289 0-56.889-25.6-56.889-56.889v-910.222c0-31.289 25.6-56.889 56.889-56.889h682.667c31.289 0 56.889 25.6 56.889 56.889v624.64l-342.244 342.471zM853.333 0h-682.667v910.222h341.333c0 0 0-297.244 0-312.889s12.8-28.444 28.444-28.444 312.889 0 312.889 0v-568.889zM568.889 625.778v262.201l261.234-262.201h-261.234zM398.222 167.879v-54.101h-56.889v54.101c-68.437 0-96.882 24.86-96.882 24.86l18.375 67.015 8.761-5.291c14.336-8.42 43.634-22.642 81.692-22.642 31.004 0 50.972 13.369 50.972 34.133 0 16.668-9.728 30.834-55.524 47.047-49.948 17.863-98.588 44.146-98.588 103.936 0 49.436 34.304 86.812 91.193 98.645v53.305h56.889v-53.305c56.889-2.219 77.71-17.806 77.71-17.806l-19.684-65.138-8.818 4.267c-14.45 7.168-36.636 17.977-71.168 17.977-27.876 0-44.373-11.207-44.373-29.924 0-16.555 15.758-27.989 62.009-45.397 65.934-24.178 95.346-56.491 95.346-107.748 0.171-50.916-34.133-92.501-91.022-103.936z" />
<glyph unicode="&#xe90f;" glyph-name="calendar" d="M227.556 910.222h113.778v-113.778h-113.778v113.778zM682.667 910.222h113.778v-113.778h-113.778v113.778zM902.087 853.333h-48.754v-113.778h-227.556v113.778h-227.556v-113.778h-227.556v113.778h-48.754c-35.726 0-65.024-37.376-65.024-73.159v-715.207c0-35.669 29.298-64.967 65.024-64.967h780.174c35.726 0 65.024 29.298 65.024 65.024v715.15c0 35.783-29.298 73.159-65.024 73.159zM910.222 113.778h-796.444v455.111h796.444v-455.111z" />
<glyph unicode="&#xe910;" glyph-name="caret-down" d="M512 284.444c-13.141 0-26.34 5.12-36.409 15.303l-289.849 237.056c-20.139 20.366-20.139 53.362 0 73.728 20.082 20.366 52.622 20.366 72.704 0l253.554-200.135 253.554 200.078c20.082 20.366 52.679 20.366 72.647 0 20.139-20.366 20.139-53.362 0-73.728l-289.849-236.999c-10.012-10.183-23.211-15.303-36.352-15.303z" />
<glyph unicode="&#xe911;" glyph-name="caret-left" d="M341.333 455.111c0 13.198 5.12 26.396 15.303 36.466l236.999 289.792c20.366 20.139 53.362 20.139 73.728 0 20.423-20.025 20.423-52.565 0-72.647l-200.078-253.554 200.078-253.497c20.309-20.082 20.309-52.679 0-72.647-20.366-20.139-53.362-20.139-73.785 0l-236.942 289.849c-10.183 9.956-15.303 23.154-15.303 36.238z" />
<glyph unicode="&#xe912;" glyph-name="caret-right" d="M682.667 455.111c0-13.198-5.12-26.34-15.303-36.409l-236.999-289.849c-20.366-20.139-53.362-20.139-73.728 0-20.366 20.082-20.366 52.622 0 72.704l200.078 253.554-200.078 253.554c-20.366 20.082-20.366 52.679 0 72.647 20.366 20.139 53.362 20.139 73.728 0l236.999-289.849c10.183-10.012 15.303-23.211 15.303-36.352z" />
<glyph unicode="&#xe913;" glyph-name="caret-up" d="M512 625.778c13.198 0 26.34-5.12 36.466-15.303l289.792-236.999c20.139-20.366 20.139-53.362 0-73.728-20.025-20.423-52.565-20.423-72.647 0l-253.554 200.078-253.554-200.078c-20.082-20.309-52.679-20.309-72.647 0-20.139 20.366-20.139 53.362 0 73.785l289.849 236.942c10.012 10.183 23.154 15.303 36.295 15.303z" />
<glyph unicode="&#xe914;" glyph-name="check-circle" d="M512 967.111c-282.795 0-512-229.205-512-512 0-282.738 229.205-512 512-512s512 229.262 512 512c0 282.795-229.205 512-512 512zM512 0c-251.335 0-455.111 203.833-455.111 455.111 0 251.335 203.776 455.111 455.111 455.111 251.278 0 455.111-203.776 455.111-455.111 0-251.278-203.833-455.111-455.111-455.111zM751.559 526.108c22.13 22.187 21.675 58.539-0.455 80.668-22.244 22.187-57.913 22.187-79.986 0l-240.64-243.655-77.995 73.671c-22.13 22.187-57.913 22.187-79.986 0-22.073-22.244-22.073-58.027 0-80.213l119.239-114.972c22.187-22.357 57.116-21.447 79.189 0.796l280.633 283.705z" />
<glyph unicode="&#xe915;" glyph-name="configuration" d="M877.682 911.587c4.437 4.437 11.605 4.38 16.043 0l9.045-9.045c4.437-4.38 4.38-11.605 0.057-15.986l-271.417-271.417 41.301-41.301 271.36 271.36c4.437 4.437 11.605 4.437 16.043 0l8.932-8.932c4.494-4.38 4.494-11.662 0.057-16.043l-271.36-271.36 36.693-36.864 252.188 252.075c48.014 47.957 50.005 124.587 4.494 170.098-45.568 45.511-122.084 43.577-170.098-4.494l-252.132-252.075 37.547-37.376 271.246 271.36zM222.094 226.19l-83.456-18.148-138.638-210.204 54.841-54.727 210.546 138.297 18.489 85.106 114.347 114.062-60.7 60.814zM442.596 682.61c12.345 68.096 1.252 159.63-58.14 219.022-59.392 59.449-150.983 70.485-219.079 58.14l98.361-98.361c22.13-22.13 22.642-57.799 0.569-79.872l-80.498-80.498c-22.073-22.073-58.823-22.642-80.953-0.512l-98.361 98.304c-12.345-68.096-1.252-159.63 58.14-219.022 59.335-59.335 150.926-70.485 219.022-58.084l545.28-545.28c44.43-44.43 116.452-44.43 160.882 0 44.373 44.373 44.43 116.508 0 160.882l-545.223 545.28zM948.167 17.237c-22.3-22.3-58.197-22.3-80.498 0-22.244 22.244-22.244 58.14 0 80.441 22.3 22.244 58.254 22.244 80.498 0s22.244-58.254 0-80.441z" />
<glyph unicode="&#xe916;" glyph-name="credit-card" d="M284.444 398.222h56.889v-113.778h-56.889v113.778zM170.667 398.222h56.889v-113.778h-56.889v113.778zM398.222 398.222h56.889v-113.778h-56.889v113.778zM910.222 853.333h-796.444c-31.289 0-56.889-25.6-56.889-56.889v-568.889c0-31.289 25.6-56.889 56.889-56.889h796.444c31.289 0 56.889 25.6 56.889 56.889v568.889c0 31.289-25.6 56.889-56.889 56.889zM910.222 256c0-15.644-12.8-28.444-28.444-28.444h-739.556c-15.644 0-28.444 12.8-28.444 28.444v312.889h796.444v-312.889zM910.222 682.667h-796.444v85.333c0 15.644 12.8 28.444 28.444 28.444h739.556c15.644 0 28.444-12.8 28.444-28.444v-85.333z" />
<glyph unicode="&#xe917;" glyph-name="dashboard" d="M170.667 369.778c0-15.644-12.8-28.444-28.444-28.444h-113.778c-15.644 0-28.444 12.8-28.444 28.444v0c0 15.644 12.8 28.444 28.444 28.444h113.778c15.644 0 28.444-12.8 28.444-28.444v0zM276.139 582.030c-11.036-11.036-29.184-11.036-40.22 0l-80.441 80.498c-11.036 11.036-11.036 29.184 0 40.22s29.184 11.036 40.22 0l80.441-80.441c11.093-11.093 11.093-29.184 0-40.277zM483.556 682.667c-15.644 0-28.444 12.8-28.444 28.444v113.778c0 15.644 12.8 28.444 28.444 28.444v0c15.644 0 28.444-12.8 28.444-28.444v-113.778c0-15.644-12.8-28.444-28.444-28.444v0zM60.416 365.739c0 235.236 189.781 426.667 423.14 426.667 69.177 0 134.315-17.18 192.057-46.99l44.658 45.056c-70.030 39.822-150.699 62.862-236.715 62.862-266.638 0-483.556-218.738-483.556-487.595 0-135.054 56.775-265.444 155.705-357.66 12.174-11.207 31.346-10.695 42.667 1.707 11.321 12.345 10.581 31.687-1.65 43.122-87.893 81.863-136.306 192.91-136.306 312.832zM891.676 476.558c9.5-35.442 15.019-72.42 15.019-110.82 0-119.751-48.412-230.912-136.249-312.832-12.231-11.435-13.028-30.777-1.65-43.179 5.916-6.485 14.052-9.728 22.244-9.728 7.339 0 14.677 2.674 20.48 8.078 98.873 92.331 155.591 222.663 155.591 357.66 0 55.865-9.842 109.511-27.136 159.573l-48.299-48.754zM492.772 402.489l319.886 319.943c22.585 22.585 58.652 22.812 81.010 0.569v0c22.3-22.3 22.016-58.311-0.512-80.953l-320.057-319.943c-22.471-22.528-10.24 25.657-32.37 47.957zM586.923 416.256c-56.206 56.206-147.285 56.206-203.492 0-56.149-56.206-56.149-147.342 0-203.435 56.206-56.206 147.228-56.206 203.492 0 56.263 56.149 56.263 147.228 0 203.435zM525.881 273.806c-22.528-22.471-58.88-22.471-81.408 0-22.414 22.528-22.471 58.937 0 81.408 22.528 22.528 58.937 22.528 81.408 0 22.528-22.414 22.528-58.88 0-81.408z" />
<glyph unicode="&#xe918;" glyph-name="deafen" d="M157.639 373.874c-6.315 26.34-10.638 53.362-10.638 81.636 0 200.932 162.93 363.918 364.089 363.918 28.16 0 55.467-3.527 81.806-9.557l72.932 73.045c-48.412 17.522-100.295 27.534-154.738 27.534-251.392 0-455.111-203.776-455.111-454.94 0-54.784 9.728-107.236 27.477-155.932l74.183 74.297zM855.723 751.787l122.368 122.368-80.441 80.441-126.236-126.236c-0.114 0.057-0.284 0.228-0.398 0.284l-65.65-65.764c0.114-0.057 0.228-0.171 0.341-0.228l-693.020-693.020 80.498-80.441 106.439 106.439c20.821-23.552 50.916-38.741 84.821-38.741v-28.444c0-15.644 12.8-28.444 28.444-28.444h56.889c15.644 0 28.444 12.8 28.444 28.444v265.842l392.647 392.647c52.338-62.919 84.309-143.246 84.309-231.424 0-64.057-16.953-124.132-46.080-176.412-10.354 3.129-21.22 5.348-32.654 5.348v28.444c0 15.644-12.8 28.444-28.444 28.444h-56.889c-15.644 0-28.444-12.8-28.444-28.444v-284.444c0-15.644 12.8-28.444 28.444-28.444h56.889c15.644 0 28.444 12.8 28.444 28.444v28.444c62.805 0 113.778 50.972 113.778 113.778 0 17.237-4.096 33.337-10.923 47.957 42.268 69.063 66.958 150.073 66.958 236.942-0.057 113.323-41.87 216.633-110.535 296.22z" />
<glyph unicode="&#xe919;" glyph-name="exit" d="M893.269 497.152l-163.726 168.107c-22.585 23.268-59.221 23.268-81.806 0-22.585-23.211-22.585-62.123 0-85.333l64.853-67.925h-313.344c-31.972 0-57.913-24.064-57.913-56.889s25.941-56.889 57.913-56.889h313.401l-64.91-67.868c-22.585-23.211-22.585-61.554 0-84.651 22.585-23.211 59.221-23.609 81.806-0.341l163.726 167.936c22.642 23.154 22.642 60.644 0 83.854zM398.222 853.333h-284.444c-31.289 0-56.889-25.6-56.889-56.889v-682.667c0-31.289 25.6-56.889 56.889-56.889h284.444c31.289 0 56.889 25.6 56.889 56.889v112.754c0 32.028-24.064 57.913-56.889 57.913s-56.889-25.884-56.889-57.913v-55.694c0 0 0-0.114 0-0.171h-170.667v568.889h170.667v-55.637c0-31.972 24.064-57.913 56.889-57.913s56.889 25.884 56.889 57.913v112.526c0 31.289-25.6 56.889-56.889 56.889z" />
<glyph unicode="&#xe91a;" glyph-name="extensions" d="M853.333 341.333h-113.778v227.556h113.778c31.46 0 56.889 25.429 56.889 56.889s-25.429 56.889-56.889 56.889h-113.778v113.778c0 31.403-25.429 56.889-56.889 56.889s-56.889-25.486-56.889-56.889v-113.778h-227.556v113.778c0 31.403-25.429 56.889-56.889 56.889s-56.889-25.486-56.889-56.889v-113.778h-113.778c-31.46 0-56.889-25.429-56.889-56.889s25.429-56.889 56.889-56.889h113.778v-227.556h-113.778c-31.46 0-56.889-25.429-56.889-56.889s25.429-56.889 56.889-56.889h113.778v-113.778c0-31.46 25.429-56.889 56.889-56.889s56.889 25.429 56.889 56.889v113.778h227.556v-113.778c0-31.46 25.429-56.889 56.889-56.889s56.889 25.429 56.889 56.889v113.778h113.778c31.403 0 56.889 25.429 56.889 56.889s-25.486 56.889-56.889 56.889zM398.222 341.333v227.556h227.556v-227.556h-227.556z" />
<glyph unicode="&#xe91b;" glyph-name="failover" d="M625.778 455.111c0-62.838-50.94-113.778-113.778-113.778s-113.778 50.94-113.778 113.778c0 62.838 50.94 113.778 113.778 113.778s113.778-50.94 113.778-113.778zM972.060 576c-3.925 15.189-19.228 24.405-34.645 20.48-15.189-3.925-24.348-19.399-20.423-34.645 37.49-145.692-5.291-302.194-111.502-408.405-138.866-138.752-353.166-165.319-521.273-64.228-29.753 17.863-57.344 46.706-82.091 71.396-0.967 0.967-1.764 10.069-2.674 10.069h101.035c15.701 0 28.444 12.8 28.444 28.444s-12.629 28.444-28.388 28.444h-169.244c-0.455 0-0.853-6.884-1.365-6.884-15.758 0.114-28.501-16.213-28.501-31.915l-0.341-172.544c0-15.701 12.629-29.241 28.388-29.355 15.701-0.114 28.444 12.288 28.501 27.932l0.171 102.741c1.308-1.308 2.389-2.958 3.698-4.267 27.989-27.989 59.278-52.565 93.013-72.818 77.369-46.478 163.385-69.177 248.832-69.177 124.871 0 248.548 48.469 342.016 141.881 120.32 120.377 168.789 297.756 126.35 462.848zM202.012 756.793c137.785 137.842 351.004 165.035 518.485 65.934 30.891-18.204 59.449-39.822 84.992-65.308 5.746-5.746 10.069-17.863 15.417-17.863h-98.418c-15.701 0-28.388-13.255-28.388-29.013 0.114-15.644 12.8-27.876 28.501-27.876h170.667c15.758 0 28.501 12.174 28.444 27.819l-0.398 170.439c-0.114 15.701-12.8 28.16-28.558 28.274-15.644 0-28.388-12.971-28.388-28.615l0.228-104.22c-6.201 6.997-12.288 14.108-18.887 20.708-28.9 28.9-61.269 54.044-96.256 74.695-189.781 112.071-431.502 81.351-587.662-74.752-120.036-120.036-168.562-296.903-126.635-461.54 3.3-12.914 14.848-21.447 27.534-21.447 2.332 0 4.722 0.284 7.054 0.91 15.246 3.868 24.405 19.342 20.537 34.532-36.978 145.294 5.803 301.34 111.73 407.324z" />
<glyph unicode="&#xe91c;" glyph-name="fax" d="M910.222 796.444h-796.444c-31.289 0-56.889-25.6-56.889-56.889v-284.444c0-31.289 25.6-56.889 56.889-56.889h682.667v-113.778c0 0-240.356 0-256 0s-28.444-12.8-28.444-28.444 0-256 0-256h-284.444v284.444h-56.889v-284.444c0-31.289 25.6-56.889 56.889-56.889h340.423l285.355 285.582v169.529h56.889c31.289 0 56.889 25.6 56.889 56.889v284.444c0 31.289-25.6 56.889-56.889 56.889zM369.778 682.667h-227.556c-15.644 0-28.444 12.8-28.444 28.444s12.8 28.444 28.444 28.444h227.556c15.644 0 28.444-12.8 28.444-28.444s-12.8-28.444-28.444-28.444zM568.889 22.243v205.312h204.345l-204.345-205.312zM284.444 284.444h170.667v-56.889h-170.667v56.889zM284.444 170.667h170.667v-56.889h-170.667v56.889zM796.444 910.222h-568.889c-31.289 0-56.889-25.6-56.889-56.889h682.667c0 31.289-25.6 56.889-56.889 56.889z" />
<glyph unicode="&#xe91d;" glyph-name="forward" d="M455.111 668.672v213.106l320.683-325.063-320.683-325.12v217.657c-341.333 8.647-357.035-250.823-262.087-420.807-234.268 250.311-249.913 651.719 262.087 640.228zM682.667 881.778v-115.314l206.905-209.749-206.905-209.749v-115.371l320.683 325.12z" />
<glyph unicode="&#xe91e;" glyph-name="global" d="M511.943-56.889c-282.795 0-511.943 229.092-511.943 511.943s229.148 512 511.943 512c282.908 0 512.057-229.148 512.057-512s-229.148-511.943-512.057-511.943v0zM926.948 498.005c0.853 0.455 1.195 1.138 1.593 2.219 0.626-3.527 2.276-6.656 4.892-9.045 0-0.228-0.171-0.171 0-0.683 0.341 0 0.455 0.171 0.683 0.171 2.844-2.162 5.973-3.641 9.785-3.641 5.916 0 10.468 3.129 13.369 7.794 0.171-0.284 0.512-0.569 0.626-0.853 0 0.569 0 1.081-0.114 1.536 1.252 2.219 2.105 4.722 2.105 7.509 0 8.875-7.054 16.043-15.986 16.043-5.575 0-10.297-3.015-13.028-7.452-0.171 0.057 0 0.512-0.284 0.341 0.284 1.195-0.967 4.38-2.56 7.68v-16.612c-0.057-1.764-0.569-3.47-1.081-5.006v0zM191.716 502.727c0 4.892-11.036 13.084-13.824 13.084 0 0.796-4.494 10.695-6.258 10.695 0 3.3-11.662 18.204-13.483 11.719-1.252-4.21 8.988-9.842 8.988-14.791 1.82 0 9.728-14.962 11.378-17.749 17.294-29.241-13.028-9.216-13.028 3.186-3.868 1.877-10.012 16.668-10.012 20.764-2.219 1.82-8.988 15.986-8.476 15.986 0 9.387-5.063 13.881-15.36 13.881-0.455 0.91-9.045 13.028-9.216 13.028 0 3.812-6.997 15.701-10.752 17.636 0 7.964-4.153 17.806-2.276 26.055 0 8.704-0.455 18.489-3.413 27.42-26.681-57.458-42.041-121.116-42.041-188.587 0-193.308 122.709-357.547 294.343-420.352 0.228 15.872 1.308 34.759 5.006 34.759 0 2.446 1.991 12.345 3.755 12.345 0 6.144 0.853 13.369 0 20.764-2.162 4.494 3.072 10.468 4.722 17.579 8.818 4.324 2.56 49.038 9.216 49.038 0 22.3 5.006 35.385 1.479 55.865 1.593 0-10.126 12.743-10.012 12.288-11.378 0-19.228 18.318-19.228 26.34-1.195 3.3-3.868 8.533-3.868 13.028 2.617 0-16.1 27.364-16.1 26.795-9.899 5.404 0.626 13.255 1.536 22.244-8.647 2.901 0.057 26.112 3.755 26.112 0.398 2.901 1.991 4.949 4.665 6.087 1.82-7.737 10.809 3.812 3.755 3.812 0 5.063-0.569 15.929 0 18.375 0 7.794-6.94 23.040-12.231 6.884-5.86 2.844-20.309 2.276-21.561 11.492 0.853 4.437-8.306 13.653-11.492 15.36 3.015 7.851-15.531 18.375-22.3 18.375 0 1.764-3.527 0.967-4.608 3.015-6.827 0-8.42 9.273-16.156 9.273-8.932 0-17.92 6.087-26.169 6.087-2.674 5.518-15.531 3.3-18.432 9.159-6.599 0-9.33 12.743-9.5 17.351-0.228 5.746-4.892 25.6-12.8 25.6v0zM840.021 759.637c-0.114-0.228 0-0.114-0.228-0.74 0.341 0 0.967-0.569 1.365-0.74-0.341 0.455-0.91 0.91-1.138 1.479v0zM849.465 748.942c1.138-2.105 1.991-4.096 1.707-5.404 1.081 0 1.65 0.569 2.617 0.853-1.479 1.479-2.958 2.958-4.324 4.551v0zM877.284 603.136c0.512 13.881-11.492 11.605-15.417 19.172-3.868 0-5.177 3.129-10.695 3.129-3.413 1.195-6.201 0.341-8.249-2.446-8.135-3.072-3.186 4.096-9.5 4.096 0.341 7.851-2.731 10.012-11.548 9.159-4.949-11.264-12.743-17.977-11.548-30.663 3.755-0.91 3.129-1.707 2.389-5.404 4.892-0.284 34.532 1.536 34.532 4.608 1.081 0 6.144-10.581 6.144-1.536 4.153 0 6.428-9.671 16.156-6.77 0.057-2.105 16.555 6.656 7.737 6.656v0zM878.82 439.865c0.626 2.844-1.365 4.096-3.072 6.997 4.324 0-13.881 33.678-13.881 39.026-2.844 1.308-6.428 11.036-6.94 14.507-3.755 2.503-7.68 10.695-9.045 15.417-3.982 2.56-13.141 13.824-14.848 19.115 5.689-0.512 13.881-1.707 13.881 5.404-3.755 0-4.096 4.665-0.74 4.665-1.195 4.608 2.617 8.021 3.243 11.662 0.91 4.494 2.901 11.378 2.901 16.612-5.291 0-6.542-0.91-10.695-2.276 0-3.129-9.5 0.74-10.752 0.74-1.991 4.039-16.612-5.177-20.708 3.186-6.713 5.916-4.892 10.581-7.111 19.001-1.081 4.21-6.94 4.551-10.354 5.12-10.012 2.048-2.844-11.89-3.47-15.019 6.144 0-3.812-7.68-3.812-11.548-10.411 2.219-6.884 13.71-13.084 16.896-1.764 3.072-0.341 5.234-4.551 5.234 0 4.153 2.219 11.662-2.503 13.084 0 1.934-8.42 2.844-9.842 5.404-5.461 0-18.375 20.878-22.3 13.881-2.332-4.494 2.105-5.632 3.072-9.33 7.908 1.65 7.225-13.084 16.953-11.492 0-2.048 0.284-4.096 0.74-6.144 7.168 1.764 6.428-5.404 10.012-5.404-2.617-3.527-10.923 5.575-8.59-2.048 1.252-4.437 0.626-8.135-5.177-12.459 0 4.779-0.341 17.692-5.291 17.692-3.527 6.77-13.653 5.177-17.749 11.492-3.413 0-4.949 10.752-10.809 11.435-1.081-1.536-5.291-3.015-6.77-3.015-3.356-6.485-21.618-0.626-21.618-1.536-0.171-0.057-10.183-24.405-10.752-27.648-1.195-6.884-6.713-6.997-8.306-13.483-0.853-3.186-20.821-1.65-20.821-4.096-8.704 2.958-16.156 8.988-16.156 18.489-0.796 0 1.479 24.064 3.129 27.534 1.764-0.512 1.991-1.138 3.072-3.072 5.291 1.934 17.749-1.308 17.749 4.608 5.12-0.114 6.599-2.219 4.494-6.144 4.836-0.91 13.028-2.219 13.028 4.608-2.844 0-3.072 0.228-3.072 3.072 9.159 9.614-6.94 18.318-6.94 23.040-3.186 1.024-9.899 8.135-5.063 5.518 3.982-2.276 18.66-6.884 12.914 2.958 0.284 0.114 0.683 0.341 0.683 0.796 1.422-1.252 8.249-8.306 8.249-1.593 1.934 0 9.216 4.608 3.072 4.608 0.683 3.527 0.569 6.258 0.91 8.42 9.785-5.177 4.21 3.584 9.102 6.884 0-6.372 5.404 3.072 8.59 3.072 3.868 5.689 12.459 1.365 14.564 7.737-4.665 1.536-3.755 13.255-3.755 17.636 5.575-0.967 11.776 7.623 12.743 1.764 0.398-2.276 0.74-8.59 1.764-9.444 8.363-4.437 6.201 2.56 6.201 6.94-2.731 0-6.428 9.785-6.94 14.564-2.332-0.341-6.087-1.308-6.884-3.072-8.363 0-14.222 3.072-20.708 3.072-0.569 0.967-8.59 10.012-7.794 10.012-4.665 8.078 4.836 5.689 6.201 6.087 0 7.623 31.801 6.315 33.052 18.375-10.354 0 10.695 17.692 10.695 17.636 7.168 5.973 10.923 11.15 19.797 11.89 3.584 0.228 45.056 11.662 45.056 6.428 1.479-0.057 7.054-0.057 12.8-0.284-80.043 74.354-186.766 120.092-304.583 120.092-114.005 0-217.714-43.008-296.846-113.152 0.74-1.593 1.365-3.129 1.252-4.21 4.267 0.284 10.183 2.901 11.548-2.389-2.048 0.114-4.096 0.284-6.087 0.853 1.365-11.89-5.234-4.608-10.866-4.608 0 0.284-2.389 1.252-5.006 1.934-1.82-1.536-3.47-3.015-5.234-4.665 0.228-0.512-0.114-0.569 0.228-1.138 1.877 0 0.91-2.788 5.973-4.494 5.973-2.048 12.402-3.186 18.716-4.153 5.006-0.74 7.964 0.91 12.231 0.91 0 0.74 10.581 5.348 3.186 5.348 0.967 4.267-0.796 5.291-5.461 5.404 0.341 4.494 11.036 1.536 15.36 1.536 3.413 5.632 0.171 5.006 3.072 10.069 3.584 6.144 7.737 0.74 10.069 6.77 3.527-1.252 6.656-3.129 7.737-7.566 2.731-2.389 16.896-23.154 16.896-8.476 5.12-1.707 7.623-11.093 7.737-16.1 9.102 1.308 10.012 8.135 10.012 15.36 2.048 0-0.796 3.356-0.796 4.608 3.356 1.195 7.68-3.356 7.68 1.536 1.479 0 1.479-1.479 1.479-3.129 4.836-0.853 7.908 0.626 10.923-0.455 1.991-0.74 0.853-11.207 0-14.848-1.308-4.665-10.126-4.779-10.126-6.94-10.183-7.509 11.833-11.492 15.36-16.043-2.105 0-10.069 0.967-10.069 1.536-4.949 0-17.010-5.291-21.504-1.536 6.201 0 8.363 7.452 9.273 14.507-5.689 2.219-12.516-1.422-14.108-7.054-2.617-9.387-8.875 0.341-12.004-5.916-1.252-0.398-12.345-5.575-12.345-3.812-12.516-1.82-9.216-12.345-9.216-23.78 4.949-3.015 15.076-11.492 14.564-16.156 11.264-1.934 15.303-3.186 25.429-4.551 0.853-1.707 4.153-3.186 6.144-3.868 0-6.599 6.087-5.404 11.605-5.404 0 8.476 9.842-6.997 10.695-9.956-1.365 0 2.389-8.59 3.129-11.548-1.536 0.512-1.991 0-1.536-1.536 4.836-1.82 12.516-1.195 13.881 3.925-4.722 0-3.129 5.234-3.129 8.42-4.836 3.129-4.039 9.33 0.74 10.695 0-4.437 15.872 2.731 6.94 6.087 2.276 4.949 3.755 12.459 0.114 16.668-2.219 2.731-5.006 0-6.087 4.039 5.916 1.536 1.479 13.028 1.479 18.432 1.877 0.74 6.884-1.252 6.884 0 5.973 0 15.701-7.452 19.228 1.536 9.899-4.551 1.991-8.761 12.402-5.291 0-2.503 11.492-13.881 13.028-13.881 0-0.455-0.228-3.755 2.276-3.755 0-2.503-1.479 1.422-1.479-3.072 1.308-0.171 9.159-1.593 9.159 1.536 5.006 0 8.363 6.144 8.363 10.752 3.243 1.991 8.647-16.896 12.459-16.896 2.674-4.21 11.492-10.581 11.492-14.62 1.764-1.877 3.755-1.422 3.755-6.94 2.389 0 6.997 9.33 6.997 0.91 2.219 0 8.42-4.722 9.216-8.476-5.518 0-0.341-5.404-3.072-5.404 0-5.177-11.89-1.081-14.677-0.74-3.698-16.555-25.771-4.779-39.196-8.932-7.054-2.219-20.764-17.863-21.504-25.6 8.533-0.057 12.459 7.396 20.082 10.012 6.087 0 7.396 3.698 13.028 5.404 0-1.65 1.479-0.796 1.479-2.389-10.866 0-4.267-7.111-1.024-12.231 1.991-3.186 4.21-4.722 6.713-5.689-1.024-1.934-1.877-3.698-2.503-5.803 0-0.057-0.114-0.057-0.114-0.057-2.048-0.683-6.144-2.162-6.884-3.812-12.459-1.365-6.258-0.512-5.518 2.446 0.512-1.138 4.892-0.114 4.779-0.171-0.796 3.812-1.877 3.3-0.91 5.404-6.599 0-9.899-3.072-15.417-3.072-0.74-1.877-5.575-6.144-7.566-6.144-1.536-4.722-5.063-13.369-9.216-16.156 0 1.308-10.866-6.77-10.012-6.77-2.503-3.925-5.177-3.812-6.144-9.956-0.74-0.455-3.868-10.752-3.868-12.345-4.779-3.129-6.485-16.1-14.677-16.1-5.006-9.899-13.824-8.533-13.824-21.447 3.072-3.072 4.21-16.612 5.12-21.049 1.138-5.404 3.015-10.98-4.324-11.093-0.455 0.74-5.575 8.42-4.551 8.42 0 3.072-3.868 13.198-6.201 16.384-3.015 4.324-8.647-0.683-13.084 1.195-1.877 3.755-14.564 4.665-19.228 4.665 0.683-2.901 2.901-3.812 3.015-6.94-3.755-1.536-5.86-3.243-9.785-2.731-6.713 0.91-5.86 6.144-13.255 5.348-11.833-1.138-20.025-10.809-20.025-22.585-1.308 0-1.308-22.983 0-22.983 0-6.428 5.461-11.15 5.461-16.1 5.12 0 11.036-11.435 16.1-11.435 0.512-4.096-2.56-4.722 6.030-4.665 0 0.455 4.836 2.901 5.461 6.087-6.030 1.479 0 9.273 3.868 10.752 0-5.461 7.623 1.764 7.623 2.276 0.91 0.398 8.476 3.072 8.42 3.072 0 6.258 5.916-0.569 1.536-3.072-4.096 0-3.868-6.94-6.087-6.94-0.967-4.836-2.844-9.102-4.096-13.881-1.422-5.86 3.356-6.599 1.877-12.117 6.030-1.081 12.231 0 18.375 0 0.114 1.138-0.114 2.048-0.683 3.072 8.761 0 0.683-16.782 6.144-16.782 0-6.372 3.015-11.321 3.015-15.36 4.096-2.901 6.713-6.485 5.461-11.548 5.063-0.683 16.1-1.934 16.1 4.551 7.851 0 8.306-5.234 7.737-10.695 15.474 0 5.86 15.303 12.345 15.303 0.455 2.503 1.536 3.015 3.129 1.308 3.129-1.593 5.632 3.186 8.135 4.665 0.74 0.683 3.527 2.276 4.096 2.276 2.105-1.252 2.389-0.91 3.3-2.332 4.21 0 8.42 2.389 12.117 4.949 5.518-0.853 3.698-12.572 14.108-13.312 4.267-0.284 13.767-1.479 17.408 1.024 0.967 0.683 4.21-2.105 4.608-3.243 3.47 0 3.129-3.015 4.608-2.901 0.341-0.74 0.853-0.967 1.479-0.796 0.512-1.252 3.3-1.707 4.722-5.348 0-3.356 6.94-3.868 6.94-6.087 5.006-2.56-1.707-3.243 5.86-5.575 4.267-1.252 8.021-3.356 12.686-3.698 1.308 5.518 6.087-0.796 8.476-0.796 1.138-2.503 1.707-0.626 3.015-2.958 7.111-5.973 2.332-3.698 5.348-10.012 3.413-2.276 4.494-10.012 5.404-14.62-2.674 0-0.74-10.468-0.74-11.492-3.413 0 8.476-6.372 8.476 1.422 4.836-0.796 8.021-6.030 11.492-6.030-1.991-4.551 5.348-8.135 5.348-0.853 7.282-0.74 5.461-11.492 4.665-15.417 5.518 0 6.997 3.243 11.605 3.755 4.949 3.186 10.524 5.348 16.725 5.348 17.749 0 31.972-14.222 31.972-31.972 0-15.986-11.776-28.501-27.079-31.061-2.048-2.219-3.925-4.267-4.039-4.267 0-1.479-0.398-16.839-0.796-16.839 0-3.072-2.332-20.025-4.722-20.025 0-8.647-5.632-10.183-7.623-18.318-4.551-3.527-17.294-9.33-19.115-13.084-3.755 0-6.372-3.072-10.183-3.072-0.512-1.138-8.249-8.363-6.827-8.363-0.683-5.461 0.341-18.204-2.674-21.845-1.764-2.332-4.722-2.048-3.527-5.916-4.267 0 0.284-2.958-6.485-2.958-4.324 0-12.004-6.201-12.231-11.378-0.284-6.201-1.991-10.752-7.509-14.734 0-2.219-9.956-2.788-9.956-8.306 0.967 0 0-10.638 0-11.662-2.958 0.114-10.354-2.788-11.548-5.291-10.126 0-8.875-0.967-15.417-5.348 0-1.365-1.024-6.144-2.389-6.144 0-7.68-5.518-0.626-9.899-4.608 1.764 0 4.096-7.737 3.072-7.737 0-6.713-4.21-7.225-8.363-12.288-2.105-1.195-3.982-6.827-5.518-6.827 0-4.551-2.276-8.704-2.276-13.028 1.024 0 0.171-1.934 0.853-3.755 2.048 0.626 2.162 3.072 3.072 3.072 0 3.755 6.087-2.332 2.276-2.332-3.186-4.836-6.485-4.949-8.476-11.492-1.82 0-3.584-1.877-5.006-4.096 37.717-10.24 77.312-16.213 118.329-16.213 157.639 0 295.879 81.579 375.751 204.743 0.455 11.15 2.105 22.073 3.413 25.6 3.3-2.162 5.575-6.485 7.794 0-5.461 1.195-4.21 3.243-2.219 7.737 2.105-1.195 6.201-2.844 9.728-2.731 1.195 1.991 1.764 4.38 2.901 6.315-3.129 2.276 1.365 8.533 2.788 5.518 0.853 1.593 1.536 3.072 2.105 4.779-0.228 0-0.228-0.228-0.74 0 0 2.731 0.512 2.332 2.389 3.812 0-0.341 0-0.341 0.114-0.683 27.989 58.596 43.975 123.847 43.975 192.91 0 2.332-0.341 4.437-0.341 6.656-0.74-3.129-2.503-6.485-4.494-7.225 0-1.991-23.040-11.89-21.504-15.986-4.153 0-18.318-3.925-20.935-9.216-2.844 0-14.279-3.982-15.246-6.087-14.507-0.114-11.776 16.612-18.716 16.612v0zM943.9 615.083h-16.953c-0.284 0.114-0.284 0.171-0.398 0.455-0.796 0-4.437 8.078-3.3 9.956 1.65 0 2.332-0.171 2.958-0.284-1.365 3.527-3.072 7.054-4.437 10.524-3.641-2.332-6.599-5.348-11.207-5.632 0-1.365-7.111-14.564 0-14.564 0-0.341 0.114-0.512 0.114-0.74-8.306-0.74-14.791-7.396-14.791-15.758 0-8.818 7.168-15.929 15.986-15.929h6.201c0.569-2.901 1.991-5.404 7.68-6.77 1.82-7.282 14.905-10.012 16.896-2.219-5.518 0-3.584 5.291-3.243 8.988h4.437c8.932 0 15.986 7.111 15.986 15.929 0.171 8.932-6.997 16.043-15.929 16.043v0zM897.252 407.097c1.081-0.114 8.59 0 8.59 1.422 6.428 0 15.701 0.967 22.244 3.015 0-9.899-8.249-15.417-6.94-25.316-5.575 0-3.072-5.575-3.072-7.623-3.527-2.219-4.096-6.258-8.476-8.306 0-4.494-9.842-11.947-12.8-15.815-3.413-4.096-13.369-11.492-14.734-17.010 0.455 1.422-18.318-19.342-13.995-19.342 0-3.925-5.177-34.361 1.479-34.361 0-2.844 5.86-28.615 2.389-28.615 0-8.135-5.291-13.141-5.291-19.911-2.731-1.707-6.485-2.844-7.794-5.291-4.722 0-6.94-10.126-9.159-10.126 0-10.581-3.072-18.489-3.072-30.663 0.74 0-6.144-17.237-6.144-18.261-5.746-3.812-20.196-17.579-20.196-24.747 0 0-10.012-13.995-11.378-15.929-3.072 0-26.226-4.38-26.226-6.144-4.949 0-17.692-3.868-20.821 0.796 0 4.892-2.617 11.036-2.958 17.749-2.389 0-2.844 9.671-5.291 9.671 0 2.162-14.734 31.744-12.402 31.744 0 3.015-2.56 13.028-3.3 13.028 0 10.695-7.68 19.285-7.68 29.127-2.219 0-6.884 21.39-4.551 21.39 0 11.264 3.982 18.66 5.518 31.118 1.877 13.653-0.74 22.187-3.186 31.801-1.252 0-5.803 7.452-6.087 9.33-6.087 4.039-8.306 12.174-8.306 19.74 3.982 4.608 5.518 21.959 4.437 27.648-7.794 3.812-10.809 2.219-19.228 2.219-5.006 10.012-38.229 3.868-47.73 3.868 0-5.404-23.154 1.081-25.259 5.575-5.86 0-16.953 12.004-16.953 17.579-6.201 4.096-16.156 24.633-16.156 31.403-5.461 2.674-3.755 13.028-0.91 13.028 0.796 2.958-1.82 11.947-3.072 16.27-0.967 3.243 3.072 6.713 3.072 10.581 0 10.695 0.228 15.588 6.258 27.022 1.877 3.527 4.267 6.94 6.030 11.435 3.129 8.078 4.039 0.455 8.476 7.566 4.096 2.105 6.428 8.988 10.695 12.288 1.764 2.389 1.877 3.413 0 5.291 0.796 0 5.518 11.89 5.518 14.62 5.916 8.306 1.65 4.494 7.509 3.812 2.276 2.389 5.86 8.476 9.33 8.476 1.365 2.958 5.234 4.551 8.306 4.551 0-4.551 12.629 1.536 13.995 1.536 2.048 4.38 15.872 9.273 19.115 9.273 0 5.234 27.307-1.422 31.744-0.796 0 0.796 0 1.536 0 2.332 5.803-1.365 16.213-24.747 15.303-29.867 4.494 0 8.59 0.683 11.548 0 0-5.063 9.387-6.258 13.483-6.428 5.916-0.341 23.438 0.512 23.438 8.761 4.437 0 8.42-3.243 7.623-8.363 5.291-0.683 36.011-1.252 33.906-7.737 4.494 0 5.689-7.68 10.012-7.68-0.967-5.291 5.234-19.058 10.012-19.058 0-4.722 2.844-13.198 6.94-16.213 2.105-6.542 9.387-20.366 15.986-24.519-2.844-5.348 4.608-9.956 6.428-15.246-0.569 0 1.422-8.021 3.641-9.273 0-5.461 11.548-27.534 17.692-27.534 0.455-3.072-5.632-4.38 2.446-4.892v0zM731.193 578.617c1.081 4.551 3.868 1.081 6.258 0.284 5.973-1.991 3.982 0.057 8.306 2.105 0-12.516-7.054-3.072-14.564-2.389v0zM715.036 601.6c2.958 0 3.982-13.995-4.722-11.492 0 3.527-2.219 10.012 2.389 10.012 1.422-5.461 2.332-3.186 2.332 1.479v0zM711.168 610.873c3.527-1.536 5.063-1.024 4.722 1.536 4.437-1.536-0.74-4.892-1.65-8.363-2.332 2.276-1.707 3.129-3.072 6.827v0zM628.964 679.139c-7.68 1.991 7.737 4.153 8.306 6.087-2.446 0-4.324 2.674-3.356 4.892 1.138 2.674 3.072-3.129 5.746-1.934 3.072 0.341 9.159 5.063 6.087-3.982-3.186-9.102-6.144-15.701-17.749-15.872-3.982 4.21-0.057 6.372 0.967 10.809v0zM657.294 710.542c6.258 0 0.853-4.551-0.512-4.551 1.024-0.512-0.171-4.153-0.171-5.404 5.689 0 5.746 3.641 9.956 4.608-0.796-5.12-6.542-6.144-0.91-10.581 2.901-2.276 5.973-5.063 4.779-8.59 7.396 0 8.363-7.054 6.827-15.36 3.982 0 3.868-0.171 3.868 3.868 3.982-1.081 3.698-4.665 0-4.665-3.584-7.168-13.198-6.884-20.025-6.884 0 5.518-1.195 5.86-6.258 4.324-6.997-2.219-1.536 5.632-1.252 9.5 0.626 0 15.815-0.74 6.713 2.276-0.341 8.249-2.332 10.695-9.899 10.695 0 5.689-2.105 5.234-3.015 11.378-1.308 9.159 7.339-0.512 9.899 9.387v0zM655.076 660.764c0-1.934-3.868-3.413-4.608-0.796 0.74-0.284 1.024 0 0.74 0.796 1.252 0 2.56 0 3.868 0v0zM591.872 743.083h-31.972c-8.875 0-15.986 7.111-15.986 15.929 0 8.875 7.111 16.1 15.986 16.1h31.972c8.875 0 15.986-7.168 15.986-16.1 0.057-8.761-6.997-15.929-15.986-15.929v0zM405.504 459.776c1.877 0 3.868-0.626 3.868-2.219-2.389 0.057-5.348-2.162-3.868 2.219v0zM376.263 458.24c-1.252-2.503-11.662-2.048-13.084 0.853 3.868 0 6.827-1.536 10.809 0 0 2.105-1.707 3.868-3.072 6.030 4.153 0 8.932-3.129 14.62-3.072 0 3.527-1.536-0.683 0 3.925 2.446-0.569 8.249-6.087 8.476-8.42-8.476 0.91-8.875 0.683-17.749 0.683v0zM342.471 476.672c-3.925 0-11.548 3.356-13.824 6.94 3.755-0.171 7.566-1.707 10.012 2.276 9.785-1.024 10.581-7.68 18.375-7.68 1.479-2.617 9.899-8.533 1.82-9.273-6.144-0.74-13.881 2.674-16.384 7.737v0zM348.558 455.168c-2.788 0-7.509-1.252-5.291 4.551 3.755-0.341 5.632-1.991 5.291-4.551v0zM354.020 456.021c-1.536-0.341-3.129-0.512-4.608-0.853 0.455 3.584 3.698 7.509 4.608 0.853v0zM382.521 422.343c-0.626-2.219-0.626-2.332-3.129-2.332 0.228 1.138 0.512 2.048 0.74 3.129 0.796-0.228 1.479-0.512 2.389-0.796v0zM313.173 485.945c0.796-0.341 1.593-0.569 2.332-0.853 1.024-3.755 3.129-1.934 5.404-0.74 0-4.38-10.411-5.746-7.737 1.593v0z" />
<glyph unicode="&#xe91f;" glyph-name="hangup" d="M891.961 776.249c-12.516 9.614-27.25 18.034-43.691 25.998-44.544 20.309-140.459 51.086-303.787 51.086h-65.707c-115.769 0-197.689-15.36-251.164-31.573-37.774-12.174-71.737-27.364-95.46-45.739-69.404-53.305-76.345-133.291-76.345-172.658 0-39.253 26.567-57.458 47.218-78.564 20.764-20.935 43.008-9.785 43.008-9.785l163.897 67.47 17.806 114.916 0.284 4.836c0 0 45.909 37.319 167.026 37.319h32.882c121.344 0 168.107-37.376 168.107-37.376l17.977-118.215 163.84-68.153c0 0 22.187-11.548 43.122 9.33 20.764 21.163 47.218 39.31 47.104 78.677 0.114 39.196-6.713 119.125-76.117 172.43zM448.057 510.066l-3.527-207.417-63.829 63.716c-22.244 22.3-58.197 22.244-80.441 0s-22.244-58.14 0-80.441l160.882-160.882c22.244-22.187 72.078-22.244 94.322 0l160.825 160.882c22.244 22.244 22.3 58.197 0 80.441-22.244 22.244-58.197 22.244-80.441 0l-63.716-63.716-3.413 207.417c0 31.46-28.956 56.889-60.359 56.889s-60.359-25.372-60.302-56.889z" />
<glyph unicode="&#xe920;" glyph-name="home" d="M533.845 607.573c-12.004 10.012-31.687 10.012-43.748 0l-297.586-248.036c-12.004-10.012-21.845-31.004-21.845-46.649v-227.556c0-15.644 12.8-28.444 28.444-28.444h227.556c15.644 0 28.444 12.8 28.444 28.444v113.778c0 15.644 12.8 28.444 28.444 28.444h56.889c15.644 0 28.444-12.8 28.444-28.444v-113.778c0-15.644 12.8-28.444 28.444-28.444h227.556c15.644 0 28.444 12.8 28.444 28.444v227.556c0 15.644-9.842 36.636-21.845 46.649l-297.643 248.036zM910.222 398.222c-13.084 0-26.283 4.494-36.978 13.71l-361.244 309.589-361.188-309.589c-23.836-20.423-59.79-17.636-80.213 6.144-20.48 23.893-17.692 59.79 6.144 80.213l398.222 341.333c21.333 18.261 52.736 18.261 74.069 0l398.222-341.333c23.893-20.423 26.681-56.377 6.144-80.213-11.207-13.084-27.193-19.854-43.179-19.854zM853.333 540.444c0-15.644-9.045-19.399-20.139-8.306l-73.557 73.557c-11.036 11.036-20.082 32.882-20.082 48.526v113.778c0 15.644 12.8 28.444 28.444 28.444h56.889c15.644 0 28.444-12.8 28.444-28.444v-227.556z" />
<glyph unicode="&#xe921;" glyph-name="inbound-call" d="M827.62 211.797l-176.64 73.671-101.319-74.126-3.982-3.527c0 0-63.545 6.485-155.989 98.987l-25.088 25.145c-92.672 92.729-99.84 157.013-99.84 157.013l76.516 104.050-73.102 177.323c0 0-8.192 25.714-40.050 25.771-32.028-0.341-66.048 6.030-96.028-24.121-29.924-29.98-85.788-96.199-73.444-189.952 2.162-16.896 6.997-34.588 13.426-53.248 18.546-49.55 68.267-146.261 192.967-271.132l50.176-50.176c88.405-88.462 162.645-139.321 215.836-167.765 38.172-19.57 75.662-34.020 107.861-38.002 93.639-12.345 159.972 43.577 190.18 73.557 29.867 29.98 23.552 64.284 23.836 96.142 0.228 31.858-25.316 40.391-25.316 40.391zM855.381 883.826l-229.604-224.768v90.283c0 31.403-25.486 56.889-56.889 56.889-31.46 0-56.889-25.429-56.889-56.889v-227.556c0-31.403 35.214-66.674 66.674-66.674h227.499c31.46 0 56.946 25.429 56.889 56.889 0 31.46-25.429 56.889-56.889 56.889h-90.112l224.654 229.604c22.244 22.244 19.797 60.644-2.446 82.887s-60.644 24.69-82.887 2.446z" />
<glyph unicode="&#xe922;" glyph-name="inbound-trunk" d="M853.333 512h-317.781l63.829 63.829c22.244 22.244 22.244 58.254 0 80.441-22.244 22.244-58.197 22.3-80.441 0l-160.939-160.882c-22.244-22.244-22.244-58.197 0-80.441l160.882-160.882c22.244-22.3 58.197-22.3 80.441 0 22.244 22.244 22.244 58.197 0 80.441l-63.716 63.716h317.724c31.46 0 56.889 25.486 56.889 56.889s-25.429 56.889-56.889 56.889zM341.333 170.667h-113.778v568.889h113.778c31.289 0 56.889 25.6 56.889 56.889s-25.6 56.889-56.889 56.889h-170.667c-31.289 0-56.889-25.6-56.889-56.889v-682.667c0-31.289 25.6-56.889 56.889-56.889h170.667c31.289 0 56.889 25.6 56.889 56.889s-25.6 56.889-56.889 56.889z" />
<glyph unicode="&#xe923;" glyph-name="info-circled" d="M512 967.111c-282.795 0-512-229.205-512-512 0-282.738 229.205-512 512-512s512 229.262 512 512c0 282.795-229.205 512-512 512zM512 0c-251.335 0-455.111 203.833-455.111 455.111 0 251.335 203.776 455.111 455.111 455.111 251.278 0 455.111-203.776 455.111-455.111 0-251.278-203.833-455.111-455.111-455.111zM512 170.894c-31.46 0-56.889 25.202-56.889 56.434v284.843c0 31.175 25.429 56.491 56.889 56.491s56.889-25.316 56.889-56.491v-284.843c0-31.232-25.429-56.434-56.889-56.434zM398.222 227.555c0 31.46 25.259 56.889 56.491 56.889h114.574c31.175 0 56.491-25.429 56.491-56.889s-25.316-56.889-56.491-56.889h-114.574c-31.232 0-56.491 25.429-56.491 56.889zM398.222 512c0 31.46 25.259 56.889 56.491 56.889h57.685c31.175 0 56.491-25.429 56.491-56.889s-25.316-56.889-56.491-56.889h-57.685c-31.232 0-56.491 25.429-56.491 56.889zM568.889 681.472c0-31.419-25.47-56.889-56.889-56.889s-56.889 25.47-56.889 56.889c0 31.419 25.47 56.889 56.889 56.889s56.889-25.47 56.889-56.889z" />
<glyph unicode="&#xe924;" glyph-name="international-call" d="M512 967.111c-282.795 0-512-229.205-512-512 0-282.169 228.124-510.805 509.952-511.886l0.341-0.114 0.228 0.057c0.512 0 1.024-0.057 1.479-0.057 282.852 0 512 229.148 512 512 0 282.795-229.262 512-512 512zM795.136 99.1c-32.37 34.475-132.836 52.053-114.176 14.677 56.889-113.778-170.667-56.889-170.667-56.889s-56.889-56.889-113.778 56.889c-25.429 50.972-56.889 56.889-113.778 56.889-48.697 0-14.336-41.529-74.695-53.589-92.615 83.285-151.154 203.662-151.154 338.034 0 22.983 2.276 45.397 5.575 67.527 24.462-65.593 106.496-59.164 106.496-10.695 0 56.889 56.889 0 56.889 56.889s56.889 56.889 0 113.778 56.889 56.889 56.889 56.889 56.889 0 56.889 56.889c0 36.921-20.139 50.005-21.22 70.144 58.823 27.705 124.245 43.691 193.593 43.691 73.557 0 142.848-17.863 204.345-48.868 49.209-81.351-27.307-127.716 21.504-127.716 56.889 0 56.889-56.889 56.889-113.778s56.889 0 56.889-56.889c0-48.583 51.598-102.116 105.643-13.938 6.372-30.322 9.842-61.724 9.842-93.924 0-144.27-67.3-272.612-171.975-356.011zM572.814 329.33l-69.689 11.036-6.77 0.114c0 0-26.453 28.672-26.453 104.22v20.48c0 75.605 26.453 104.846 26.453 104.846l73.444 11.15 42.439 102.172c0 0 7.452 13.824-5.234 26.908-12.857 12.971-23.666 29.468-47.445 29.355-23.78-0.057-72.021-4.267-104.277-47.559-5.86-7.794-10.866-16.953-15.758-27.25-12.345-27.762-30.891-87.552-30.891-189.326v-40.96c0-72.306 9.216-123.392 19.115-156.615 7.339-23.495 16.555-44.715 27.762-59.62 32.199-43.236 80.668-47.616 104.562-47.616 23.78 0 34.816 16.555 47.673 29.525 12.8 13.028 5.916 26.965 5.916 26.965l-40.846 102.172z" />
<glyph unicode="&#xe925;" glyph-name="international-number" d="M711.111 512c15.701 0 28.444 12.743 28.444 28.444s-12.743 28.444-28.444 28.444h-85.333v85.333c0 15.644-12.8 28.444-28.444 28.444s-28.444-12.8-28.444-28.444v-85.333h-113.778v85.333c0 15.644-12.8 28.444-28.444 28.444s-28.444-12.8-28.444-28.444v-85.333h-85.333c-15.701 0-28.444-12.743-28.444-28.444s12.743-28.444 28.444-28.444h85.333v-113.778h-85.333c-15.701 0-28.444-12.743-28.444-28.444s12.743-28.444 28.444-28.444h85.333v-85.333c0-15.644 12.8-28.444 28.444-28.444s28.444 12.8 28.444 28.444v85.333h113.778v-85.333c0-15.644 12.8-28.444 28.444-28.444s28.444 12.8 28.444 28.444v85.333h85.333c15.701 0 28.444 12.743 28.444 28.444s-12.743 28.444-28.444 28.444h-85.333v113.778h85.333zM568.889 398.222h-113.778v113.778h113.778v-113.778zM950.613 719.246c-145.863 242.233-460.516 320.341-702.805 174.478-242.233-145.863-320.284-460.459-174.421-702.748 145.92-242.347 460.459-320.398 702.748-174.478 242.233 145.92 320.284 460.572 174.478 702.748zM867.1 405.39c29.355-48.754-19.399-78.108-68.096-107.463s29.355-48.697-19.399-78.052c-41.586-25.088-60.871-96.939 42.553-97.792-22.699-21.049-47.844-40.22-75.435-56.832-123.563-74.468-268.231-83.001-393.614-36.352 12.857 45.511-23.95 140.686-46.364 105.415-68.153-107.463-136.761 116.85-136.761 116.85s-78.052 19.399-9.956 126.805c30.492 48.071 19.399 78.052-9.956 126.805-25.145 41.7-43.065-9.102-84.48 36.409 23.609 122.254 96.54 234.496 211.627 303.844 19.456 11.719 39.538 21.22 59.904 29.696-43.122-54.67 5.177-121.344 46.592-96.37 48.697 29.355 29.298-48.754 78.052-19.399s78.108-19.399 97.508 58.709c19.342 78.108 78.108-19.399 78.108-19.399s29.355-48.754 78.108-19.399c31.63 19.058 32.427 43.065 49.095 54.386 54.101-36.068 101.547-83.968 137.33-143.36 37.945-62.976 58.368-131.527 63.545-200.192-44.373-84.196-123.563-42.496-98.361-84.309z" />
<glyph unicode="&#xe926;" glyph-name="ip" d="M768 625.778h-142.222v-113.778h142.222c15.644 0 28.444 12.8 28.444 28.444v56.889c0 15.644-12.8 28.444-28.444 28.444zM967.111 853.333h-910.222c-31.289 0-56.889-25.6-56.889-56.889v-682.667c0-31.289 25.6-56.889 56.889-56.889h910.222c31.289 0 56.889 25.6 56.889 56.889v682.667c0 31.289-25.6 56.889-56.889 56.889zM426.667 284.444c15.644 0 28.444-12.8 28.444-28.444s-12.8-28.444-28.444-28.444h-227.556c-15.644 0-28.444 12.8-28.444 28.444s12.8 28.444 28.444 28.444h85.333v341.333h-85.333c-15.644 0-28.444 12.8-28.444 28.444s12.8 28.444 28.444 28.444h227.556c15.644 0 28.444-12.8 28.444-28.444s-12.8-28.444-28.444-28.444h-85.333v-341.333h85.333zM853.333 512c0-31.289-25.6-56.889-56.889-56.889h-170.667v-206.222c0-11.776-12.8-21.333-28.444-21.333s-28.444 9.557-28.444 21.333v433.778h227.556c31.289 0 56.889-25.6 56.889-56.889v-113.778z" />
<glyph unicode="&#xe927;" glyph-name="list" d="M227.556 682.667c0-31.289-25.6-56.889-56.889-56.889h-56.889c-31.289 0-56.889 25.6-56.889 56.889v56.889c0 31.289 25.6 56.889 56.889 56.889h56.889c31.289 0 56.889-25.6 56.889-56.889v-56.889zM967.111 682.667c0-31.289-25.6-56.889-56.889-56.889h-512c-31.289 0-56.889 25.6-56.889 56.889v56.889c0 31.289 25.6 56.889 56.889 56.889h512c31.289 0 56.889-25.6 56.889-56.889v-56.889zM967.111 398.222c0-31.289-25.6-56.889-56.889-56.889h-512c-31.289 0-56.889 25.6-56.889 56.889v56.889c0 31.289 25.6 56.889 56.889 56.889h512c31.289 0 56.889-25.6 56.889-56.889v-56.889zM967.111 113.778c0-31.289-25.6-56.889-56.889-56.889h-512c-31.289 0-56.889 25.6-56.889 56.889v56.889c0 31.289 25.6 56.889 56.889 56.889h512c31.289 0 56.889-25.6 56.889-56.889v-56.889zM227.556 398.222c0-31.289-25.6-56.889-56.889-56.889h-56.889c-31.289 0-56.889 25.6-56.889 56.889v56.889c0 31.289 25.6 56.889 56.889 56.889h56.889c31.289 0 56.889-25.6 56.889-56.889v-56.889zM227.556 113.778c0-31.289-25.6-56.889-56.889-56.889h-56.889c-31.289 0-56.889 25.6-56.889 56.889v56.889c0 31.289 25.6 56.889 56.889 56.889h56.889c31.289 0 56.889-25.6 56.889-56.889v-56.889z" />
<glyph unicode="&#xe928;" glyph-name="loading-circle" d="M512 739.555c156.843 0 284.444-127.602 284.444-284.444s-127.602-284.444-284.444-284.444-284.444 127.602-284.444 284.444 127.602 284.444 284.444 284.444zM512 796.444c-188.53 0-341.333-152.804-341.333-341.333s152.804-341.333 341.333-341.333c188.53 0 341.333 152.804 341.333 341.333s-152.804 341.333-341.333 341.333v0zM523.378 966.542l-2.048 0.569-0.967-0.398c-2.788 0-5.518 0.398-8.363 0.398-4.324 0-8.476-0.512-12.8-0.626l-1.422 0.626-2.901-0.853c-274.773-9.102-494.876-234.155-494.876-511.147 0-282.795 229.205-512 512-512s512 229.205 512 512c0 278.926-223.175 505.287-500.622 511.431zM512 0c-250.937 0-455.111 204.174-455.111 455.111 0 75.833 18.944 147.285 51.883 210.261l118.784-39.595 281.998 169.472 281.998-169.472 122.994 41.017c33.451-63.317 52.565-135.282 52.565-211.684 0-250.937-204.174-455.111-455.111-455.111z" />
<glyph unicode="&#xe929;" glyph-name="main-office" d="M0 910.222h568.889v-56.889h-568.889v56.889zM512 568.889h512v-56.889h-512v56.889zM512 455.111v341.333h-455.111v-853.333h625.778v170.667h113.778v-170.667h170.667v512h-455.111zM227.556 56.889h-56.889v113.778h56.889v-113.778zM227.556 284.444h-56.889v113.778h56.889v-113.778zM227.556 512h-56.889v113.778h56.889v-113.778zM398.222 56.889h-56.889v113.778h56.889v-113.778zM398.222 284.444h-56.889v113.778h56.889v-113.778zM398.222 512h-56.889v113.778h56.889v-113.778zM682.667 227.555h-56.889v113.778h56.889v-113.778zM853.333 227.555h-56.889v113.778h56.889v-113.778z" />
<glyph unicode="&#xe92a;" glyph-name="minus-circled" d="M512 967.111c-282.795 0-512-229.205-512-512 0-282.738 229.205-512 512-512 282.738 0 512 229.262 512 512 0 282.795-229.262 512-512 512zM512 0c-251.335 0-455.111 203.833-455.111 455.111 0 251.335 203.776 455.111 455.111 455.111 251.278 0 455.111-203.776 455.111-455.111 0-251.278-203.833-455.111-455.111-455.111zM739.556 512h-455.111c-31.403 0-56.889-25.429-56.889-56.889s25.486-56.889 56.889-56.889h455.111c31.46 0 56.889 25.429 56.889 56.889s-25.429 56.889-56.889 56.889z" />
<glyph unicode="&#xe92b;" glyph-name="mobile-phone" d="M739.556 967.111h-455.111c-31.289 0-56.889-25.6-56.889-56.889v-910.222c0-31.289 25.6-56.889 56.889-56.889h455.111c31.289 0 56.889 25.6 56.889 56.889v910.222c0 31.289-25.6 56.889-56.889 56.889zM512 0c-31.403 0-56.889 25.429-56.889 56.889s25.486 56.889 56.889 56.889c31.46 0 56.889-25.429 56.889-56.889s-25.429-56.889-56.889-56.889zM739.556 199.111c0-15.644-12.8-28.444-28.444-28.444h-398.222c-15.644 0-28.444 12.8-28.444 28.444v625.778c0 15.644 12.8 28.444 28.444 28.444h398.222c15.644 0 28.444-12.8 28.444-28.444v-625.778z" />
<glyph unicode="&#xe92c;" glyph-name="moderator" d="M711.111 711.111c0-109.966-89.145-199.111-199.111-199.111s-199.111 89.145-199.111 199.111c0 109.966 89.145 199.111 199.111 199.111s199.111-89.145 199.111-199.111zM512.455 455.111l-113.778-113.778 113.778-341.333 113.778 341.333zM113.778 398.222c-31.289 0-56.889-25.6-56.889-56.889v-341.333c0-31.289 25.6-56.889 56.889-56.889h323.527l-179.541 455.111h-143.986zM910.222 398.222h-143.986l-179.484-455.111h323.47c31.289 0 56.889 25.6 56.889 56.889v341.333c0 31.289-25.6 56.889-56.889 56.889zM910.222 113.778h-170.667v56.889h170.667v-56.889z" />
<glyph unicode="&#xe92d;" glyph-name="multiple-items" d="M85.333 170.667c-15.701 0-28.444 12.743-28.444 28.444v739.556c0 15.701 12.743 28.444 28.444 28.444h568.889c15.701 0 28.444-12.743 28.444-28.444s-12.743-28.444-28.444-28.444h-540.444v-711.111c0-15.701-12.743-28.444-28.444-28.444zM881.778-56.889h-568.889c-15.701 0-28.444 12.743-28.444 28.444v739.556c0 15.701 12.743 28.444 28.444 28.444h568.889c15.701 0 28.444-12.743 28.444-28.444v-739.556c0-15.701-12.743-28.444-28.444-28.444zM341.333 0h512v682.667h-512v-682.667zM199.111 56.889c-15.701 0-28.444 12.743-28.444 28.444v739.556c0 15.701 12.743 28.444 28.444 28.444h568.889c15.701 0 28.444-12.743 28.444-28.444s-12.743-28.444-28.444-28.444h-540.444v-711.111c0-15.701-12.743-28.444-28.444-28.444z" />
<glyph unicode="&#xe92e;" glyph-name="onetime-charge" d="M227.556 398.222h56.889v-113.778h-56.889v113.778zM113.778 398.222h56.889v-113.778h-56.889v113.778zM455.111 227.555h-369.778c-15.644 0-28.444 12.8-28.444 28.444v312.889h682.667v-56.889h56.889v284.444c0 31.289-25.6 56.889-56.889 56.889h-682.667c-31.289 0-56.889-25.6-56.889-56.889v-568.889c0-31.289 25.6-56.889 56.889-56.889h398.222v56.889zM56.889 768c0 15.644 12.8 28.444 28.444 28.444h625.778c15.644 0 28.444-12.8 28.444-28.444v-85.333h-682.667v85.333zM768 455.111c-141.369 0-256-114.574-256-256 0-141.312 114.631-256 256-256s256 114.688 256 256c0 141.426-114.631 256-256 256zM853.333 56.889h-170.667v56.889h56.889v166.343l-25.941-14.848-28.9 28.9 54.841 47.161h56.889v-227.556h56.889v-56.889z" />
<glyph unicode="&#xe92f;" glyph-name="outbound-call" d="M827.62 211.797l-176.64 73.671-101.319-74.126-3.982-3.527c0 0-63.545 6.485-155.989 98.987l-25.088 25.145c-92.672 92.729-99.84 157.013-99.84 157.013l76.516 104.050-73.102 177.323c0 0-8.192 25.714-40.050 25.771-32.028-0.341-66.048 6.030-96.028-24.121-29.924-29.98-85.788-96.199-73.444-189.952 2.162-16.896 6.997-34.588 13.426-53.248 18.546-49.55 68.267-146.261 192.967-271.132l50.176-50.176c88.405-88.462 162.645-139.321 215.836-167.765 38.172-19.57 75.662-34.020 107.861-38.002 93.639-12.345 159.972 43.577 190.18 73.557 29.867 29.98 23.552 64.284 23.836 96.142 0.228 31.858-25.316 40.391-25.316 40.391zM620.089 474.226l233.244 224.711v-90.226c0-31.403 25.486-56.889 56.889-56.889 31.46 0 56.889 25.429 56.889 56.889v227.556c0 31.346-42.496 73.956-73.956 73.956h-227.499c-31.46 0-56.946-25.429-56.889-56.889 0-31.46 25.429-56.889 56.889-56.889h90.112l-224.654-233.244c-22.244-22.187-17.92-62.464 4.267-84.708s62.521-26.51 84.708-4.267z" />
<glyph unicode="&#xe930;" glyph-name="outbound-trunk" d="M893.554 495.388l-160.882 160.882c-22.244 22.3-58.197 22.3-80.441 0-22.244-22.244-22.244-58.197 0-80.441l63.772-63.829h-317.781c-31.403 0-56.889-25.486-56.889-56.889s25.486-56.889 56.889-56.889h317.724l-63.716-63.716c-22.244-22.244-22.244-58.254 0-80.441 22.244-22.244 58.197-22.3 80.441 0l160.882 160.882c22.244 22.187 22.244 58.197 0 80.441zM341.333 170.667h-113.778v568.889h113.778c31.289 0 56.889 25.6 56.889 56.889s-25.6 56.889-56.889 56.889h-170.667c-31.289 0-56.889-25.6-56.889-56.889v-682.667c0-31.289 25.6-56.889 56.889-56.889h170.667c31.289 0 56.889 25.6 56.889 56.889s-25.6 56.889-56.889 56.889z" />
<glyph unicode="&#xe931;" glyph-name="pbx" d="M512 682.667c-125.668 0-227.556-101.888-227.556-227.556s101.888-227.556 227.556-227.556 227.556 101.888 227.556 227.556-101.888 227.556-227.556 227.556zM512 341.333c-62.748 0-113.778 50.972-113.778 113.778 0 62.748 51.029 113.778 113.778 113.778 62.805 0 113.778-51.029 113.778-113.778 0-62.805-50.972-113.778-113.778-113.778zM113.778 739.555c21.049 0 40.562 6.087 57.458 16.1l109.284-109.284c12.174 14.677 25.543 28.046 40.22 40.22l-109.284 109.284c10.012 16.896 16.1 36.409 16.1 57.458 0 62.805-50.972 113.778-113.778 113.778s-113.778-50.972-113.778-113.778 50.972-113.778 113.778-113.778zM743.424 646.371l109.34 109.284c16.896-10.012 36.409-16.1 57.458-16.1 62.805 0 113.778 50.972 113.778 113.778s-50.972 113.778-113.778 113.778-113.778-50.972-113.778-113.778c0-21.049 6.087-40.562 16.1-57.458l-109.34-109.284c14.791-12.174 28.103-25.543 40.22-40.22zM910.222 170.667c-21.049 0-40.562-6.087-57.458-16.1l-109.34 109.34c-12.117-14.791-25.429-28.103-40.22-40.22l109.34-109.34c-10.012-16.896-16.1-36.409-16.1-57.458 0-62.805 50.972-113.778 113.778-113.778s113.778 50.972 113.778 113.778-50.972 113.778-113.778 113.778zM280.519 263.907l-109.284-109.34c-16.896 10.012-36.409 16.1-57.458 16.1-62.805 0-113.778-50.972-113.778-113.778s50.972-113.778 113.778-113.778 113.778 50.972 113.778 113.778c0 21.049-6.087 40.562-16.1 57.458l109.284 109.34c-14.734 12.117-28.046 25.429-40.22 40.22z" />
<glyph unicode="&#xe932;" glyph-name="per-minute" d="M512 853.333c-251.335 0-455.111-203.776-455.111-455.111s203.776-455.111 455.111-455.111 455.111 203.776 455.111 455.111-203.776 455.111-455.111 455.111zM512-6.315c-223.46 0-404.537 181.077-404.537 404.537s181.134 404.537 404.537 404.537c223.516 0 404.537-181.134 404.537-404.537 0-223.516-181.020-404.537-404.537-404.537zM739.556 455.111h-97.337c-14.336 32.768-40.619 58.994-73.33 73.33v97.337c0 31.403-25.429 56.889-56.889 56.889s-56.889-25.486-56.889-56.889v-97.337c-50.176-21.959-85.333-71.908-85.333-130.219 0-78.45 63.659-142.222 142.222-142.222 58.197 0 108.146 35.157 130.162 85.333h97.394c31.46 0 56.889 25.429 56.889 56.889s-25.429 56.889-56.889 56.889zM512 312.889c-47.104 0-85.333 38.229-85.333 85.333s38.229 85.333 85.333 85.333 85.333-38.229 85.333-85.333-38.229-85.333-85.333-85.333zM59.79 625.778c36.011 105.415 119.239 188.644 224.654 224.654-29.412 36.181-73.728 59.79-123.961 59.79-88.633 0-160.484-71.851-160.484-160.484 0-50.233 23.552-94.549 59.79-123.961zM964.153 625.778c-36.011 105.415-119.296 188.644-224.654 224.654 29.412 36.181 73.728 59.79 124.018 59.79 88.633 0 160.427-71.851 160.427-160.484 0-50.233-23.552-94.549-59.79-123.961zM212.082 83.627l-26.738-26.738c-19.57-19.513-19.57-51.143 0-70.656 19.513-19.57 51.086-19.57 70.656 0l32.825 32.825c-27.989 18.603-53.589 40.391-76.743 64.569zM840.306 83.57c-23.154-24.178-48.754-45.909-76.8-64.512l32.939-32.882c19.513-19.57 51.143-19.513 70.656 0 19.57 19.513 19.57 51.086 0 70.656l-26.795 26.738zM512 853.333c19.058 0 37.717-1.536 56.092-3.812 0.114 1.365 0.796 2.446 0.796 3.812 0 31.403-25.429 56.889-56.889 56.889s-56.889-25.486-56.889-56.889c0-1.365 0.683-2.446 0.796-3.812 18.375 2.276 37.035 3.812 56.092 3.812z" />
<glyph unicode="&#xe933;" glyph-name="plus-circled" d="M512 967.111c-282.795 0-512-229.205-512-512 0-282.738 229.205-512 512-512 282.738 0 512 229.262 512 512 0 282.795-229.262 512-512 512zM512 0c-251.335 0-455.111 203.833-455.111 455.111 0 251.335 203.776 455.111 455.111 455.111 251.278 0 455.111-203.776 455.111-455.111 0-251.278-203.833-455.111-455.111-455.111zM739.556 512h-170.667v170.667c0 31.403-25.429 56.889-56.889 56.889s-56.889-25.486-56.889-56.889v-170.667h-170.667c-31.403 0-56.889-25.429-56.889-56.889s25.486-56.889 56.889-56.889h170.667v-170.667c0-31.46 25.429-56.889 56.889-56.889s56.889 25.429 56.889 56.889v170.667h170.667c31.46 0 56.889 25.429 56.889 56.889s-25.429 56.889-56.889 56.889z" />
<glyph unicode="&#xe934;" glyph-name="porting" d="M739.556 739.555h-227.556c-31.46 0-56.889-25.429-56.889-56.889 0-31.403 25.429-56.889 56.889-56.889h90.169l-227.556-227.556h-317.724c-31.289 0-56.889-25.6-56.889-56.889v-341.333c0-31.289 25.6-56.889 56.889-56.889h341.333c31.289 0 56.889 25.6 56.889 56.889v317.724l227.556 227.556v-90.169c0-31.403 25.486-56.889 56.889-56.889s56.889 25.486 56.889 56.889v227.556c0 31.46-25.486 56.889-56.889 56.889zM996.75 112.583h-400.612c-15.701 0-28.444 12.743-28.444 28.444s12.743 28.444 28.444 28.444h372.167v740.75h-740.75v-369.778c0-15.701-12.743-28.444-28.444-28.444s-28.444 12.743-28.444 28.444v398.222c0 15.701 12.743 28.444 28.444 28.444h797.639c15.701 0 28.444-12.743 28.444-28.444v-797.639c0-15.758-12.686-28.444-28.444-28.444z" />
<glyph unicode="&#xe935;" glyph-name="prioritize" d="M328.818 896.91c-16.668 17.749-43.975 17.749-60.644 0l-151.836-161.223-43.179 45.796c-16.668 17.806-44.032 17.806-60.644 0-16.668-17.692-16.668-46.706 0-64.341 0 0 71.339-75.662 73.5-77.995 16.725-17.749 43.975-17.749 60.814 0l182.044 193.365c16.612 17.636 16.612 46.649-0.057 64.398zM1024 682.667c0-31.289-25.6-56.889-56.889-56.889h-512c-31.289 0-56.889 25.6-56.889 56.889v56.889c0 31.289 25.6 56.889 56.889 56.889h512c31.289 0 56.889-25.6 56.889-56.889v-56.889zM1024 398.222c0-31.289-25.6-56.889-56.889-56.889h-512c-31.289 0-56.889 25.6-56.889 56.889v56.889c0 31.289 25.6 56.889 56.889 56.889h512c31.289 0 56.889-25.6 56.889-56.889v-56.889zM1024 113.778c0-31.289-25.6-56.889-56.889-56.889h-512c-31.289 0-56.889 25.6-56.889 56.889v56.889c0 31.289 25.6 56.889 56.889 56.889h512c31.289 0 56.889-25.6 56.889-56.889v-56.889zM227.556 398.222c0-31.289-25.6-56.889-56.889-56.889h-56.889c-31.289 0-56.889 25.6-56.889 56.889v56.889c0 31.289 25.6 56.889 56.889 56.889h56.889c31.289 0 56.889-25.6 56.889-56.889v-56.889zM227.556 113.778c0-31.289-25.6-56.889-56.889-56.889h-56.889c-31.289 0-56.889 25.6-56.889 56.889v56.889c0 31.289 25.6 56.889 56.889 56.889h56.889c31.289 0 56.889-25.6 56.889-56.889v-56.889z" />
<glyph unicode="&#xe936;" glyph-name="prorated-charge" d="M227.556 398.222h56.889v-113.778h-56.889v113.778zM113.778 398.222h56.889v-113.778h-56.889v113.778zM455.111 227.555h-369.778c-15.644 0-28.444 12.8-28.444 28.444v312.889h682.667v-56.889h56.889v284.444c0 31.289-25.6 56.889-56.889 56.889h-682.667c-31.289 0-56.889-25.6-56.889-56.889v-568.889c0-31.289 25.6-56.889 56.889-56.889h398.222v56.889zM56.889 768c0 15.644 12.8 28.444 28.444 28.444h625.778c15.644 0 28.444-12.8 28.444-28.444v-85.333h-682.667v85.333zM972.572 46.649c31.858 42.667 51.428 95.118 51.428 152.462 0 58.084-20.082 110.99-52.622 153.941l-152.633-152.633 153.828-153.771zM738.645 200.135l0.341 0.341-0.341 0.341 193.365 193.365c-44.487 37.49-101.205 60.928-164.011 60.928-141.369 0-256-114.574-256-256 0-141.312 114.631-256 256-256 63.431 0 120.775 23.95 165.49 62.18l-194.844 194.844z" />
<glyph unicode="&#xe937;" glyph-name="question-circled" d="M512.284 910.222c250.937 0 455.111-204.174 455.111-455.111s-204.174-455.111-455.111-455.111-455.111 204.174-455.111 455.111 204.174 455.111 455.111 455.111zM512.284 967.111c-282.795 0-512-229.205-512-512s229.205-512 512-512 512 229.205 512 512-229.205 512-512 512v0zM513.536 335.986c-31.403 0-56.889 25.429-56.889 56.889 0 36.124 16.839 72.59 47.388 102.741 6.258 6.144 15.872 13.084 27.477 20.764 28.331 18.66 41.7 29.924 41.7 52.508 0 22.756-20.708 55.694-58.14 55.694-38.172 0-58.14-28.9-58.14-57.458 0-31.403-25.486-56.889-56.889-56.889s-56.889 25.486-56.889 56.889c0 96.028 75.548 171.236 171.918 171.236 94.834 0 171.918-76.004 171.918-169.472 0-86.357-62.805-127.716-92.956-147.57-4.267-2.788-8.078-5.12-10.866-7.452-10.297-10.183-12.743-18.66-12.743-20.992 0-31.403-25.429-56.889-56.889-56.889zM512.228 284.444c-31.403 0-56.889-25.429-56.889-56.889s25.486-56.889 56.889-56.889 56.946 25.429 56.946 56.889-25.543 56.889-56.946 56.889v0z" />
<glyph unicode="&#xe938;" glyph-name="root-level" d="M78.734 482.588l433.266-265.387 433.55 265.5 7.68-4.836c8.647-5.348 13.881-14.108 13.881-23.552 0-9.387-5.234-18.204-13.881-23.552l-421.66-257.991c-5.575-3.413-12.402-5.348-19.57-5.348s-13.995 1.877-19.627 5.348l-421.547 257.991c-8.704 5.348-13.938 14.165-13.938 23.552 0 9.444 5.234 18.204 13.938 23.552l7.851 4.836 0.057-0.114zM78.734 315.107l433.266-265.33 433.55 265.444 7.68-4.779c8.647-5.348 13.881-14.222 13.881-23.552 0-9.444-5.234-18.204-13.881-23.552l-421.66-257.991c-5.575-3.47-12.402-5.348-19.57-5.348s-13.995 1.877-19.627 5.348l-421.547 257.991c-8.704 5.348-13.938 14.108-13.938 23.552 0 9.33 5.234 18.204 13.938 23.552l7.851 4.779 0.057-0.114zM512 336.555c-7.168 0-13.995 1.877-19.627 5.348l-421.547 258.048c-8.704 5.291-13.938 14.052-13.938 23.495s5.234 18.261 13.938 23.609l421.547 257.991c11.378 6.997 27.876 6.997 39.196 0l421.66-257.991c8.647-5.348 13.881-14.165 13.881-23.609s-5.234-18.204-13.881-23.552l-421.66-257.991c-5.575-3.47-12.402-5.348-19.57-5.348z" />
<glyph unicode="&#xe939;" glyph-name="seats" d="M739.556 568.889h-227.556v-56.889h227.556v-512h227.556v568.889zM341.333 824.889c0-47.128-38.205-85.333-85.333-85.333s-85.333 38.205-85.333 85.333c0 47.128 38.205 85.333 85.333 85.333s85.333-38.205 85.333-85.333zM512 398.222h-170.667v227.556h256c15.644 0 28.444 12.8 28.444 28.444s-12.8 28.444-28.444 28.444h-369.778c-31.289 0-56.889-25.6-56.889-56.889v-284.444c0-31.289 25.6-56.889 56.889-56.889h227.556v-227.556c0-31.289 25.6-56.889 56.889-56.889s56.889 25.6 56.889 56.889v284.444c0 31.289-25.6 56.889-56.889 56.889zM256 227.555h-199.111v369.778c0 15.644-12.8 28.444-28.444 28.444s-28.444-12.8-28.444-28.444v-398.222c0-15.644 12.8-28.444 28.444-28.444h227.556c15.644 0 28.444 12.8 28.444 28.444s-12.8 28.444-28.444 28.444z" />
<glyph unicode="&#xe93a;" glyph-name="service-plan" d="M722.887 574.691c-22.244 22.756-58.652 22.756-80.953 0l-202.411-206.45-57.515 58.652c-22.3 22.756-58.709 22.756-80.896 0-22.187-22.642-22.187-59.79 0-82.489 0 0 95.118-96.768 97.963-99.783 22.3-22.756 58.652-22.756 81.067 0l242.688 247.58c22.3 22.585 22.3 59.79 0.057 82.489zM625.778 910.222h-56.889c0 31.403-25.486 56.889-56.889 56.889s-56.889-25.486-56.889-56.889h-56.889c-31.403 0-56.889-25.486-56.889-56.889s25.486-56.889 56.889-56.889h227.556c31.46 0 56.889 25.486 56.889 56.889s-25.429 56.889-56.889 56.889zM881.778 853.333h-56.889c-15.701 0-28.444-12.743-28.444-28.444s12.743-28.444 28.444-28.444h28.444v-739.556c0-31.289-25.6-56.889-56.889-56.889h-568.889c-31.289 0-56.889 25.6-56.889 56.889v739.556h28.444c15.701 0 28.444 12.743 28.444 28.444s-12.743 28.444-28.444 28.444h-56.889c-15.701 0-28.444-12.743-28.444-28.444v-768c0-62.578 51.2-113.778 113.778-113.778h568.889c62.578 0 113.778 51.2 113.778 113.778v768c0 15.701-12.743 28.444-28.444 28.444z" />
<glyph unicode="&#xe93b;" glyph-name="service-providers" d="M0 284.444l56.889-284.444c0 0 106.667 56.491 168.732 56.491 51.712 0 213.504-113.38 286.265-113.38 132.551 0 470.756 294.4 470.756 294.4s61.44 42.439 34.418 87.95c-27.022 45.34-96.654 12.117-122.652-6.087 0 0 5.575 33.337-19.627 47.502-25.031 13.938-76.231 1.934-99.499-26.283 0 0-22.357 33.223-51.086 34.304s-122.425-66.446-154.283-90.453c60.416 0 171.236 19.57 171.236-87.097 0-59.563-34.418-83.513-146.489-83.968 0 0-118.955-1.991-132.494 1.934-13.426 4.096-76.231 17.237-124.587 77.881 0 0 75.321-22.869 133.916-22.869 65.536 0 154.624 0 154.624 0s56.32-5.916 56.32 29.070c0 29.924-56.32 27.876-56.32 27.876s-151.438 1.195-227.897 89.884c-31.801 36.807-64.512 79.815-105.301 79.815-122.254 0.057-179.143-112.526-292.921-112.526zM398.222 696.889c0-7.851-6.372-14.222-14.222-14.222h-85.333c-7.851 0-14.222 6.372-14.222 14.222v85.333c0 7.851 6.372 14.222 14.222 14.222h85.333c7.851 0 14.222-6.372 14.222-14.222v-85.333zM398.222 867.555c0-7.851-6.372-14.222-14.222-14.222h-85.333c-7.851 0-14.222 6.372-14.222 14.222v85.333c0 7.851 6.372 14.222 14.222 14.222h85.333c7.851 0 14.222-6.372 14.222-14.222v-85.333zM398.222 526.222c0-7.851-6.372-14.222-14.222-14.222h-85.333c-7.851 0-14.222 6.372-14.222 14.222v85.333c0 7.851 6.372 14.222 14.222 14.222h85.333c7.851 0 14.222-6.372 14.222-14.222v-85.333zM568.889 696.889c0-7.851-6.315-14.222-14.222-14.222h-85.333c-7.851 0-14.222 6.372-14.222 14.222v85.333c0 7.851 6.372 14.222 14.222 14.222h85.333c7.908 0 14.222-6.372 14.222-14.222v-85.333zM568.889 867.555c0-7.851-6.315-14.222-14.222-14.222h-85.333c-7.851 0-14.222 6.372-14.222 14.222v85.333c0 7.851 6.372 14.222 14.222 14.222h85.333c7.908 0 14.222-6.372 14.222-14.222v-85.333zM568.889 526.222c0-7.851-6.315-14.222-14.222-14.222h-85.333c-7.851 0-14.222 6.372-14.222 14.222v85.333c0 7.851 6.372 14.222 14.222 14.222h85.333c7.908 0 14.222-6.372 14.222-14.222v-85.333zM739.556 696.889c0-7.851-6.315-14.222-14.222-14.222h-85.333c-7.908 0-14.222 6.372-14.222 14.222v85.333c0 7.851 6.315 14.222 14.222 14.222h85.333c7.908 0 14.222-6.372 14.222-14.222v-85.333zM739.556 867.555c0-7.851-6.315-14.222-14.222-14.222h-85.333c-7.908 0-14.222 6.372-14.222 14.222v85.333c0 7.851 6.315 14.222 14.222 14.222h85.333c7.908 0 14.222-6.372 14.222-14.222v-85.333zM739.556 526.222c0-7.851-6.315-14.222-14.222-14.222h-85.333c-7.908 0-14.222 6.372-14.222 14.222v85.333c0 7.851 6.315 14.222 14.222 14.222h85.333c7.908 0 14.222-6.372 14.222-14.222v-85.333z" />
<glyph unicode="&#xe93c;" glyph-name="setting-cog-double" d="M287.289 446.123c4.892 19.911 12.288 38.741 20.651 56.946-53.817 15.132-93.468 64.057-93.468 122.709 0 70.656 57.23 128 128 128 58.709 0 107.634-39.822 122.652-93.81 17.977 8.249 36.636 15.474 56.32 20.252l90.453 117.362c9.102 11.321 8.761 27.648-0.967 38.684l-26.908 30.265c-9.728 10.923-25.828 13.198-38.286 5.461l-57.799-36.409c-25.429 17.806-54.215 30.948-85.333 38.514l-11.207 68.039c-2.446 14.45-14.791 24.974-29.468 24.974h-40.505c-14.62 0-27.136-10.524-29.412-24.974l-11.378-67.982c-25.714-6.258-49.778-16.498-71.794-29.867l-55.012 39.31c-11.89 8.42-28.16 7.111-38.514-3.186l-28.615-28.672c-10.297-10.354-11.605-26.624-3.186-38.457l39.367-55.125c-13.255-21.845-23.324-45.852-29.582-71.282l-68.324-11.378c-14.393-2.389-24.974-14.848-24.974-29.468v-40.562c0-14.564 10.581-27.022 24.917-29.412l68.38-11.435c5.177-20.992 12.629-40.96 22.585-59.506l-43.065-53.419c-9.216-11.378-8.761-27.648 0.967-38.628l26.852-30.265c9.728-10.923 25.941-13.255 38.229-5.404l148.423 68.722zM996.921 366.706l-73.33 12.231c-5.348 21.732-13.028 42.553-23.154 61.952l46.876 58.14c9.899 12.288 9.5 29.98-1.081 41.87l-29.127 32.825c-10.581 11.833-27.989 14.336-41.472 5.916l-62.635-39.424c-27.534 19.285-58.709 33.508-92.444 41.7l-12.231 73.671c-2.503 15.644-15.872 27.079-31.744 27.079h-43.861c-15.872 0-29.412-11.435-31.915-27.079l-12.345-73.671c-27.876-6.77-53.988-17.806-77.767-32.313l-59.62 42.61c-12.857 9.102-30.436 7.68-41.7-3.47l-31.004-31.061c-11.15-11.207-12.572-28.843-3.413-41.7l42.61-59.733c-14.336-23.666-25.259-49.664-32.028-77.198l-74.012-12.345c-15.644-2.56-27.079-16.043-27.079-31.858v-43.918c0-15.758 11.435-29.298 27.022-31.858l74.069-12.402c5.575-22.699 13.71-44.373 24.462-64.512l-46.649-57.856c-9.956-12.345-9.5-29.98 1.024-41.813l29.070-32.768c10.581-11.89 28.103-14.393 41.472-5.916l63.602 39.879c26.965-18.432 57.344-31.972 89.998-39.879l12.345-73.671c2.389-15.531 15.929-27.022 31.801-27.022h43.861c15.872 0 29.298 11.492 31.915 27.079l12.231 73.671c27.534 6.656 53.362 17.465 76.971 31.744l62.066-44.316c12.8-9.159 30.436-7.737 41.586 3.527l31.061 30.948c11.15 11.15 12.629 28.843 3.47 41.7l-44.203 61.895c14.393 23.723 25.316 49.721 32.085 77.54l73.273 12.231c15.531 2.503 27.022 15.986 27.022 31.744v43.918c0 15.872-11.492 29.298-27.079 31.915zM655.417 170.667c-78.62 0-142.279 63.716-142.279 142.222s63.659 142.222 142.279 142.222c78.507 0 142.165-63.716 142.165-142.222s-63.716-142.222-142.165-142.222z" />
<glyph unicode="&#xe93d;" glyph-name="setting-cog" d="M933.774 521.33l-90.226 15.076c-6.599 26.795-16.1 52.395-28.558 76.288l57.742 71.566c12.231 15.132 11.719 36.864-1.195 51.541l-35.897 40.334c-13.028 14.564-34.532 17.636-50.972 7.282l-77.084-48.526c-33.906 23.723-72.306 41.244-113.778 51.371l-15.076 90.681c-3.186 19.228-19.74 33.28-39.31 33.28h-53.988c-19.456 0-36.124-14.052-39.253-33.28l-15.189-90.681c-34.247-8.363-66.332-21.959-95.63-39.765l-73.387 52.338c-15.815 11.264-37.49 9.5-51.314-4.21l-38.172-38.229c-13.71-13.824-15.474-35.499-4.21-51.314l52.452-73.5c-17.692-29.127-31.118-61.042-39.481-94.948l-91.136-15.246c-19.115-3.186-33.223-19.854-33.223-39.31v-54.044c0-19.399 14.108-36.068 33.223-39.196l91.136-15.303c6.884-27.932 16.839-54.613 30.151-79.36l-57.401-71.168c-12.231-15.132-11.719-36.807 1.252-51.428l35.783-40.448c13.028-14.507 34.588-17.579 51.029-7.168l78.222 49.038c33.109-22.585 70.542-39.196 110.706-49.038l15.189-90.624c3.072-19.228 19.74-33.337 39.253-33.337h53.988c19.57 0 36.124 14.108 39.253 33.337l15.132 90.624c33.963 8.192 65.593 21.504 94.606 39.14l76.459-54.613c15.644-11.264 37.376-9.5 51.2 4.267l38.172 38.172c13.71 13.71 15.531 35.442 4.21 51.314l-54.443 76.174c17.749 29.241 31.232 61.212 39.538 95.403l90.169 15.076c19.285 3.129 33.394 19.74 33.394 39.14v54.044c0 19.456-14.108 36.068-33.337 39.253zM513.422 284.501c-94.322 0-170.667 76.402-170.667 170.553 0 94.265 76.345 170.724 170.667 170.724 94.151 0 170.667-76.459 170.667-170.724-0.057-94.151-76.516-170.553-170.667-170.553z" />
<glyph unicode="&#xe93e;" glyph-name="soft-phone" d="M284.444 56.889h455.111v-56.889h-455.111v56.889zM920.007 113.778h-816.014c-57.344 0-103.993 47.559-103.993 106.098v584.249c0 58.482 46.649 106.098 103.993 106.098h816.014c57.344 0 103.993-47.616 103.993-106.098v-584.249c0-58.539-46.649-106.098-103.993-106.098zM103.993 843.321c-18.887 0-34.759-17.977-34.759-39.196v-584.249c0-21.276 15.872-39.196 34.759-39.196h816.014c18.887 0 34.759 17.92 34.759 39.196v584.249c0 21.22-15.872 39.196-34.759 39.196h-816.014zM881.778 796.444h-739.556c-15.644 0-28.444-12.8-28.444-28.444v-512c0-15.644 12.8-28.444 28.444-28.444h739.556c15.644 0 28.444 12.8 28.444 28.444v512c0 15.644-12.8 28.444-28.444 28.444zM558.535 373.532c-13.028-12.8-41.415-36.75-81.522-31.46-13.824 1.707-29.924 7.794-46.251 16.213-22.756 12.231-54.613 34.020-92.444 71.908l-21.561 21.618c-53.476 53.362-74.752 94.891-82.66 116.11-2.844 8.021-4.836 15.531-5.803 22.756-5.291 40.277 18.66 68.608 31.516 81.465 12.857 13.028 27.42 10.24 41.188 10.354 13.653 0 17.124-10.98 17.124-10.98l31.346-76.004-32.825-44.658c0 0 3.072-27.42 42.724-67.3l10.695-10.695c39.652-39.652 66.901-42.382 66.901-42.382l1.707 1.365 43.349 31.858 75.776-31.516c0 0 10.98-3.641 10.809-17.351s2.674-28.331-10.069-41.301z" />
<glyph unicode="&#xe93f;" glyph-name="speaking" d="M105.529 805.091c0 0 79.417 64.626 254.805 44.26 0 0 127.886-17.806 173.966-116.85 0 0 14.45-31.915 20.423-57.856 6.087-25.429 11.605-30.094 15.986-45.739 4.324-15.929-4.38-37.148-6.087-43.634-1.82-5.916-7.225-20.878 3.47-35.954 10.752-15.019 38.229-58.425 43.804-64.171 5.234-6.542 19.513-26.852 11.492-40.277-8.021-13.312-43.577-16.839-42.61-26.453 0.853-9.5 7.566-25.145 5.234-31.972-3.584-10.069-57.060-13.084-57.060-23.438 0-11.321 56.092-17.92 45.17-30.948-4.722-6.258-14.222-14.279-7.737-41.87 6.144-27.477-9.956-54.044-37.433-61.668-27.42-8.42-105.131-3.698-113.152-31.403-8.021-27.42-7.111-83.342-7.111-83.342h-335.986c0 0 43.577 86.756 16.839 217.714-26.795 131.072-114.062 100.068-82.887 305.436 0 0 14.336 105.358 98.873 168.164zM967.111 142.222c0-15.644-12.8-28.444-28.444-28.444v0c-15.644 0-28.444 12.8-28.444 28.444v341.333c0 15.644 12.8 28.444 28.444 28.444v0c15.644 0 28.444-12.8 28.444-28.444v-341.333zM853.333 199.111c0-15.644-12.8-28.444-28.444-28.444v0c-15.644 0-28.444 12.8-28.444 28.444v227.556c0 15.644 12.8 28.444 28.444 28.444v0c15.644 0 28.444-12.8 28.444-28.444v-227.556zM739.556 256c0-15.644-12.8-28.444-28.444-28.444v0c-15.644 0-28.444 12.8-28.444 28.444v113.778c0 15.644 12.8 28.444 28.444 28.444v0c15.644 0 28.444-12.8 28.444-28.444v-113.778z" />
<glyph unicode="&#xe940;" glyph-name="sprint-phone" d="M796.444 910.222c0 31.403-25.429 56.889-56.889 56.889h-455.111c-31.403 0-56.889-25.486-56.889-56.889v-910.222c0-31.46 25.486-56.889 56.889-56.889h455.111c31.46 0 56.889 25.429 56.889 56.889v910.222zM522.695 0c-31.46 0-56.889 25.429-56.889 56.889s25.429 56.889 56.889 56.889 56.889-25.429 56.889-56.889-25.486-56.889-56.889-56.889zM739.556 199.111c0-15.701-12.743-28.444-28.444-28.444h-398.222c-15.701 0-28.444 12.743-28.444 28.444v625.778c0 15.701 12.743 28.444 28.444 28.444h398.222c15.701 0 28.444-12.743 28.444-28.444v-625.778zM364.203 407.438c30.208-15.474 76.686-30.891 124.53-30.891 51.655 0 78.962 21.39 78.962 53.76 0 30.834-23.609 48.583-83.285 69.973-82.603 28.729-136.42 74.411-136.42 146.66 0 84.708 70.713 149.504 188.018 149.504 55.979 0 97.28-11.776 126.805-25.031l-25.031-90.624c-20.025 9.614-55.353 23.666-103.993 23.666s-72.249-22.187-72.249-47.957c0-31.687 28.046-45.682 92.16-69.973 87.666-32.427 128.967-78.108 128.967-148.082 0-83.228-64.114-153.998-200.476-153.998-56.775 0-112.811 14.791-140.857 30.208l22.869 92.786z" />
<glyph unicode="&#xe941;" glyph-name="tablet" d="M967.111 853.333h-910.222c-31.403 0-56.889-25.486-56.889-56.889v-682.667c0-31.46 25.486-56.889 56.889-56.889h910.222c31.46 0 56.889 25.429 56.889 56.889v682.667c0 31.403-25.429 56.889-56.889 56.889zM853.333 142.222c0-15.701-12.743-28.444-28.444-28.444h-682.667c-15.701 0-28.444 12.743-28.444 28.444v625.778c0 15.701 12.743 28.444 28.444 28.444h682.667c15.701 0 28.444-12.743 28.444-28.444v-625.778zM941.113 398.222c-31.346 0-56.889 25.486-56.889 56.889s25.543 56.889 56.889 56.889 56.889-25.486 56.889-56.889-25.543-56.889-56.889-56.889z" />
<glyph unicode="&#xe942;" glyph-name="transactions" d="M568.889 170.667v76.004c56.889 13.767 84.764 63.716 84.48 124.928 0 61.554-41.87 100.409-111.161 129.365-48.64 21.049-64.853 34.816-64.853 54.727 0 22.471 17.977 35.897 47.332 35.897 36.295 0 61.042-13.028 76.345-21.618l11.947-5.063 26.453 78.222c0 0-13.596 18.773-70.485 21.447v74.98h-113.835v-74.98c-56.889-14.222-80.441-59.108-80.441-118.67 0-71.794 66.674-103.367 119.239-124.871 48.185-19.57 57.799-36.523 57.799-56.548 0-24.917-22.016-41.017-54.613-41.017-39.936 0-72.704 17.067-87.78 27.25l-13.084 6.315-27.307-80.555c0 0 29.298-29.81 86.187-29.81v-76.004h113.778zM972.060 576c-3.925 15.189-19.228 24.405-34.645 20.48-15.189-3.925-24.348-19.399-20.423-34.645 37.49-145.692-5.291-302.194-111.502-408.405-138.866-138.752-353.166-165.319-521.273-64.228-29.753 17.863-57.344 46.706-82.091 71.396-0.967 0.967-1.764 10.069-2.674 10.069h101.035c15.701 0 28.444 12.8 28.444 28.444s-12.629 28.444-28.388 28.444h-169.244c-0.455 0-0.853-6.884-1.365-6.884-15.758 0.114-28.501-16.213-28.501-31.915l-0.341-172.544c0-15.701 12.629-29.241 28.388-29.355 15.701-0.114 28.444 12.288 28.501 27.932l0.171 102.741c1.308-1.308 2.389-2.958 3.698-4.267 27.989-27.989 59.278-52.565 93.013-72.818 77.369-46.478 163.385-69.177 248.832-69.177 124.871 0 248.548 48.469 342.016 141.881 120.32 120.377 168.789 297.756 126.35 462.848zM202.012 756.793c137.785 137.842 351.004 165.035 518.485 65.934 30.891-18.204 59.449-39.822 84.992-65.308 5.746-5.746 10.069-17.863 15.417-17.863h-98.418c-15.701 0-28.388-13.255-28.388-29.013 0.114-15.644 12.8-27.876 28.501-27.876h170.667c15.758 0 28.501 12.174 28.444 27.819l-0.398 170.439c-0.114 15.701-12.8 28.16-28.558 28.274-15.644 0-28.388-12.971-28.388-28.615l0.228-104.22c-6.201 6.997-12.288 14.108-18.887 20.708-28.9 28.9-61.269 54.044-96.256 74.695-189.781 112.071-431.502 81.351-587.662-74.752-120.036-120.036-168.562-296.903-126.635-461.54 3.3-12.914 14.848-21.447 27.534-21.447 2.332 0 4.722 0.284 7.054 0.91 15.246 3.868 24.405 19.342 20.537 34.532-36.978 145.294 5.803 301.34 111.73 407.324z" />
<glyph unicode="&#xe943;" glyph-name="two-way" d="M853.333 398.222h-682.667c-31.46 0-56.889-25.429-56.889-56.889s25.429-56.889 56.889-56.889h545.337l-77.028-77.028c-22.244-22.244-22.244-58.197 0-80.441s58.197-22.244 80.441 0l174.023 174.080c0.057 0 5.632 8.249 5.632 8.249 6.485 9.273 11.15 19.911 11.15 32.028 0 31.46-25.429 56.889-56.889 56.889zM170.667 512h682.667c31.46 0 56.889 25.429 56.889 56.889s-25.429 56.889-56.889 56.889h-545.337l77.028 75.264c22.244 22.244 22.244 57.344 0 79.588s-58.254 21.788-80.441-0.398l-174.080-174.478c-0.057 0-5.632-8.306-5.632-8.306-6.428-9.159-11.093-18.148-11.093-30.265 0-31.46 25.429-55.182 56.889-55.182z" />
<glyph unicode="&#xe944;" glyph-name="unassign" d="M910.222 910.222h-227.556c-31.289 0-56.889-25.6-56.889-56.889s25.6-56.889 56.889-56.889h90.169l-331.548-331.548c-22.13-22.13-22.13-58.311 0-80.441l0.057-0.057c22.13-22.13 58.311-22.13 80.441 0l331.548 331.548v-90.169c0-31.289 25.6-56.889 56.889-56.889s56.889 25.6 56.889 56.889v227.556c0 31.289-25.6 56.889-56.889 56.889zM824.889 0h-739.556c-15.701 0-28.444 12.743-28.444 28.444v739.556c0 15.701 12.743 28.444 28.444 28.444h341.333c15.701 0 28.444-12.743 28.444-28.444s-12.743-28.444-28.444-28.444h-312.889v-682.667h682.667v312.889c0 15.701 12.743 28.444 28.444 28.444s28.444-12.743 28.444-28.444v-341.333c0-15.701-12.743-28.444-28.444-28.444z" />
<glyph unicode="&#xe945;" glyph-name="user" d="M771.243 657.351c0-69.575-24.633-129.024-73.842-178.233-49.266-49.209-108.658-73.899-178.29-73.899s-129.024 24.69-178.29 73.899c-49.209 49.266-73.842 108.658-73.842 178.233 0 69.632 24.633 129.024 73.842 178.233 49.266 49.266 108.658 73.899 178.29 73.899s129.024-24.633 178.29-73.899c49.209-49.209 73.842-108.601 73.842-178.233zM972.004 146.147c-1.536 21.788-4.551 45.227-9.102 70.485-4.551 25.202-10.24 48.583-17.124 70.087s-16.1 42.496-27.762 62.976c-11.662 20.423-25.031 37.945-40.164 52.338-15.076 14.393-33.451 25.998-55.239 34.645-13.71 5.348-28.501 8.476-43.918 10.524-61.668-74.809-155.022-122.539-259.527-122.539-104.448 0-197.916 47.73-259.527 122.539-15.36-2.048-30.265-5.12-43.918-10.524-21.845-8.533-40.334-20.082-55.353-34.532-15.132-14.393-28.501-31.915-40.164-52.338-11.662-20.48-20.878-41.472-27.762-62.976-6.884-21.618-12.572-44.885-17.124-70.087s-7.566-48.697-9.102-70.485c-1.479-21.732-2.276-44.032-2.276-66.901 0-51.712 15.758-76.914 47.218-106.894 31.46-30.037 73.273-29.355 125.44-29.355h565.077c52.053 0 93.81-0.683 125.326 29.298 31.46 29.98 47.218 62.919 47.218 114.745 0 22.812-0.796 37.319-2.219 58.994z" />
<glyph unicode="&#xe946;" glyph-name="voicemail" d="M796.444 682.667c-125.724 0-227.556-101.888-227.556-227.556 0-41.643 12.004-80.156 31.573-113.778h-176.924c19.57 33.621 31.573 72.135 31.573 113.778 0 125.668-101.888 227.556-227.556 227.556-125.724 0-227.556-101.888-227.556-227.556s101.831-227.499 227.499-227.556l569.287 0.057c125.497 0.171 227.214 101.945 227.214 227.499 0 125.668-101.888 227.556-227.556 227.556zM226.475 340.252c-62.805 0-113.778 50.972-113.778 113.835 0 62.805 50.972 113.778 113.778 113.778s113.778-50.972 113.778-113.778c0-62.862-50.916-113.835-113.778-113.835zM795.364 340.309c-62.805 0-113.778 50.972-113.778 113.778s50.972 113.778 113.778 113.778c62.805 0 113.778-50.972 113.778-113.778s-50.916-113.778-113.778-113.778z" />
<glyph unicode="&#xe947;" glyph-name="voip-phone" d="M56.889 55.979v0c-31.289 0-56.889 26.51-56.889 57.799v682.667c0 31.289 25.6 56.889 56.889 56.889v0h57.799v-797.355h-57.799zM398.222 56.889c0-31.289-25.6-56.889-56.889-56.889h-113.778c-31.289 0-56.889 25.6-56.889 56.889v796.444c0 31.289 25.6 56.889 56.889 56.889h113.778c31.289 0 56.889-25.6 56.889-56.889v-796.444zM967.111 853.333h-512v-796.444h512c31.289 0 56.889 25.6 56.889 56.889v682.667c0 31.289-25.6 56.889-56.889 56.889zM622.421 117.305h-113.323v113.778h113.323v-113.778zM622.421 290.93h-113.323v113.778h113.323v-113.778zM622.421 455.111h-113.323v113.778h113.323v-113.778zM794.34 117.305h-113.436v113.778h113.436v-113.778zM794.34 290.93h-113.436v113.778h113.436v-113.778zM794.34 455.111h-113.436v113.778h113.436v-113.778zM966.201 117.305h-113.38v113.778h113.38v-113.778zM966.201 290.93h-113.38v113.778h113.38v-113.778zM966.201 455.111h-113.38v113.778h113.38v-113.778zM967.111 625.778h-455.111v170.667h455.111v-170.667z" />
<glyph unicode="&#xe948;" glyph-name="warning" d="M512 284.672c-31.46 0-56.889 25.202-56.889 56.434v227.954c0 31.175 25.429 56.491 56.889 56.491s56.889-25.316 56.889-56.491v-227.954c0-31.232-25.429-56.434-56.889-56.434zM568.889 169.472c0-31.419-25.47-56.889-56.889-56.889s-56.889 25.47-56.889 56.889c0 31.419 25.47 56.889 56.889 56.889s56.889-25.47 56.889-56.889zM900.324-56.889h-776.647c-51.712 0-91.079 19.968-110.933 56.036-19.797 36.181-16.498 82.034 9.387 129.252l388.324 708.665c25.884 47.161 61.952 73.159 101.547 73.159 39.652 0 75.719-25.998 101.547-73.159l388.324-708.608c25.828-47.104 29.184-93.127 9.33-129.138-19.74-36.238-59.164-56.206-110.876-56.206zM512 849.806c-19.74 0-40.22-11.492-56.036-40.391l-388.324-708.665c-15.872-28.956-19.285-57.116-9.387-75.15 9.899-17.92 33.735-25.543 65.422-25.543h776.647c31.687 0 55.58 7.623 65.365 25.657 9.956 17.92 6.485 45.625-9.33 74.524l-388.324 708.892c-15.758 28.843-36.238 40.676-56.036 40.676z" />
<glyph unicode="&#xe949;" glyph-name="x-circled" d="M512 967.111c-282.795 0-512-229.205-512-512 0-282.738 229.205-512 512-512 282.738 0 512 229.262 512 512 0 282.795-229.262 512-512 512zM512 0c-251.335 0-455.111 203.833-455.111 455.111 0 251.335 203.776 455.111 455.111 455.111 251.278 0 455.111-203.776 455.111-455.111 0-251.278-203.833-455.111-455.111-455.111zM592.441 455.111l120.661 120.661c22.244 22.244 22.3 58.197 0 80.498-22.244 22.244-58.197 22.244-80.441 0l-120.661-120.661-120.661 120.661c-22.244 22.244-58.197 22.244-80.441 0s-22.244-58.254 0-80.498l120.661-120.661-120.661-120.661c-22.244-22.244-22.244-58.197 0-80.441 22.244-22.3 58.197-22.3 80.441 0l120.661 120.661 120.661-120.661c22.244-22.3 58.197-22.3 80.441 0 22.3 22.244 22.3 58.197 0 80.441l-120.661 120.661z" />
</font>
</defs>
</svg>
