<?xml version="1.0" encoding="utf-8"?>
<!-- Generator: Adobe Illustrator 16.0.0, SVG Export Plug-In . SVG Version: 6.00 Build 0)  -->
<!DOCTYPE svg PUBLIC "-//W3C//DTD SVG 1.1//EN" "http://www.w3.org/Graphics/SVG/1.1/DTD/svg11.dtd">
<svg version="1.1" xmlns="http://www.w3.org/2000/svg" xmlns:xlink="http://www.w3.org/1999/xlink" x="0px" y="0px" width="185px"
	 height="45px" viewBox="0 0 185 45" enable-background="new 0 0 185 45" xml:space="preserve">
<g id="Layer_2" display="none">
	<rect x="29.238" y="191.286" display="inline" fill="#282829" width="553.968" height="387.301"/>
</g>
<g id="Layer_1">
	<path fill="#FFFFFF" d="M106.831,1.432v4.012L79.702,39.461v0.093h27.697v4.014H73.764v-4.106l27.067-33.924V5.444H74.554V1.432
		H106.831z M126.984,1c8.148,0,13.243,1.163,15.286,3.488c2.042,2.325,3.063,8.139,3.063,17.441c0,10.021-0.979,16.206-2.937,18.553
		c-1.96,2.346-7.097,3.519-15.413,3.519c-8.275,0-13.407-1.163-15.396-3.488c-1.989-2.326-2.985-8.335-2.985-18.028v-2.963
		l0.064-3.982c0-5.597,1.289-9.419,3.868-11.467C115.115,2.023,119.931,1,126.984,1z M126.953,5.013
		c-6.822,0-10.812,0.741-11.971,2.223c-1.158,1.482-1.736,6.564-1.736,15.248c0,8.706,0.578,13.8,1.736,15.28
		c1.158,1.481,5.148,2.224,11.971,2.224c6.842,0,10.843-0.742,12-2.224c1.159-1.48,1.738-6.574,1.738-15.28v-2.746l-0.033-3.982
		c0-4.65-0.8-7.604-2.398-8.859C136.659,5.641,132.891,5.013,126.953,5.013z M166.651,1c8.148,0,13.244,1.163,15.286,3.488
		C183.98,6.813,185,12.627,185,21.929c0,10.021-0.978,16.206-2.937,18.553C180.106,42.827,174.968,44,166.651,44
		c-8.273,0-13.406-1.163-15.396-3.488c-1.989-2.326-2.983-8.335-2.983-18.028v-2.963l0.062-3.982c0-5.597,1.29-9.419,3.869-11.467
		S159.599,1,166.651,1z M166.62,5.013c-6.822,0-10.812,0.741-11.969,2.223c-1.159,1.482-1.738,6.564-1.738,15.248
		c0,8.706,0.579,13.8,1.738,15.28c1.157,1.481,5.146,2.224,11.969,2.224c6.844,0,10.845-0.742,12.002-2.224
		c1.157-1.48,1.737-6.574,1.737-15.28v-2.746l-0.032-3.982c0-4.65-0.801-7.604-2.4-8.859C176.326,5.641,172.558,5.013,166.62,5.013z
		 M35.294,43.567L13.186,21.743L32.894,1.432h-6.285L8.954,19.798v0.032v4.013v0.032l19.675,19.692H35.294z M0,1.432v42.135h4.49
		V1.432H0z M43.474,34.647l-0.788,2.116l0.796-2.116H43.474z M68.645,43.567h5.085L57.622,1.432h-6.821L35.009,43.567h5.148
		l2.459-6.619l0,0l0.069-0.185l0.788-2.116h0.008l2.831-7.535l0,0l7.993-21.791l8.101,21.791l0,0l2.874,7.535h0.017L68.645,43.567z"
		/>
</g>
</svg>
