<?xml version="1.0" encoding="UTF-8"?>
<svg version="1.1" xmlns="http://www.w3.org/2000/svg" width="768" height="768">
<path d="M0 0 C55.19462251 -1.05383527 105.40815854 19.58834126 145.8359375 56.4375 C146.58593018 57.12005859 146.58593018 57.12005859 147.35107422 57.81640625 C160.1861806 69.78723914 171.22514106 84.86836376 179.7734375 100.125 C180.18803223 100.85074219 180.60262695 101.57648438 181.02978516 102.32421875 C196.19054501 129.07785903 209.04347135 162.86805587 207.7734375 194.125 C208.5778125 194.310625 208.5778125 194.310625 209.3984375 194.5 C239.17159452 202.33504132 264.82727171 225.15216576 280.25 251.2265625 C311.30647424 306.03398515 295.60335627 385.47246542 280.08032227 442.7746582 C263.82611351 500.6157348 236.41973725 554.04414346 197.7734375 600.125 C196.95746094 601.115 196.14148438 602.105 195.30078125 603.125 C183.82501342 616.9670823 171.53814258 630.56949738 157.8828125 642.29296875 C155.59714204 644.27811587 153.37642372 646.3253983 151.1484375 648.375 C145.57023498 653.40216428 139.69906418 657.99311216 133.75976562 662.58007812 C131.6636497 664.21039051 129.58485579 665.86109456 127.5078125 667.515625 C118.02597091 675.0381154 108.3473568 682.06450831 98.15673828 688.59667969 C96.52084412 689.64571651 94.88921276 690.70142173 93.26123047 691.76269531 C66.87469636 708.93512148 39.44720901 719.78253551 7.7734375 721.125 C6.51466797 721.186875 6.51466797 721.186875 5.23046875 721.25 C-34.18011178 722.2276268 -67.58797605 706.11991454 -99.2265625 684.125 C-99.9062207 683.65529785 -100.58587891 683.1855957 -101.28613281 682.70166016 C-110.20495412 676.51945284 -118.7643382 669.91517034 -127.2265625 663.125 C-128.1959375 662.3515625 -129.1653125 661.578125 -130.1640625 660.78125 C-135.76239524 656.26441336 -141.14211876 651.56070697 -146.42578125 646.6796875 C-148.55659744 644.73609784 -150.71053619 642.84969913 -152.8984375 640.97265625 C-158.09084543 636.44252341 -162.9288965 631.56848041 -167.7890625 626.6875 C-168.69591797 625.78451172 -169.60277344 624.88152344 -170.53710938 623.95117188 C-175.64323934 618.83763635 -180.54462039 613.628282 -185.2265625 608.125 C-186.0721875 607.16078125 -186.9178125 606.1965625 -187.7890625 605.203125 C-243.50627208 540.55687542 -276.42870263 459.4012731 -287.2265625 375.125 C-287.37754395 373.96210449 -287.52852539 372.79920898 -287.68408203 371.60107422 C-289.83267582 354.34047237 -290.54845055 337.19396681 -290.6640625 319.8125 C-290.67618774 318.87167572 -290.68831299 317.93085144 -290.70080566 316.96151733 C-291.08375736 282.07972897 -279.18526042 250.89301543 -255.10473633 225.53222656 C-240.21958184 210.40040261 -221.64400454 199.09133035 -201.2265625 193.125 C-200.5665625 193.125 -199.9065625 193.125 -199.2265625 193.125 C-199.26007813 191.86171875 -199.29359375 190.5984375 -199.328125 189.296875 C-199.32177433 183.87340588 -198.55333273 178.70473061 -197.6015625 173.375 C-197.42334961 172.3742041 -197.24513672 171.3734082 -197.06152344 170.34228516 C-189.08481338 127.49614968 -169.17276899 89.57793386 -139.2265625 58.125 C-138.61296875 57.47015625 -137.999375 56.8153125 -137.3671875 56.140625 C-101.76428859 19.18142518 -50.23215676 1.94603997 0 0 Z M-86.5390625 125.5625 C-98.2864013 139.01819362 -115.2265625 162.24652202 -115.2265625 181.125 C-101.42591078 180.56946529 -87.64466501 179.81670458 -73.86523438 178.87353516 C-49.50930227 177.27017646 -25.15473821 176.9220954 -0.75529861 176.93611908 C1.68340886 176.93752009 4.12211371 176.93741492 6.56082153 176.93731689 C38.9370479 176.94698713 71.23341306 177.7613368 103.50561523 180.51513672 C109.945154 181.05975524 116.31141317 181.22407703 122.7734375 181.125 C119.63691284 153.43091292 98.54781828 127.13667406 77.7734375 110.125 C26.60023642 71.06080639 -43.02021506 79.2730427 -86.5390625 125.5625 Z " fill="#086BBB" transform="translate(379.2265625,22.875)"/>
<path d="M0 0 C0.81726563 0.70640625 1.63453125 1.4128125 2.4765625 2.140625 C25.75685827 22.68640984 45.2873903 47.76585948 55.97265625 77.1953125 C56.81108528 79.48425563 57.72452761 81.66704508 58.75 83.875 C60.17786456 87.44466139 60.87678444 90.14335288 61 94 C59.42155547 96.34290689 58.12358048 97.9073353 56.125 99.8125 C55.0969785 100.85740656 54.06964396 101.90298936 53.04296875 102.94921875 C52.26832275 103.71951416 52.26832275 103.71951416 51.47802734 104.50537109 C49.37386348 106.63316944 47.41041918 108.87580129 45.4375 111.125 C39.03548889 118.24723736 32.32124565 125.01506099 25.0390625 131.23828125 C22.7730777 133.19605739 20.57856506 135.22228948 18.375 137.25 C12.79679748 142.27716428 6.92562668 146.86811216 0.98632812 151.45507812 C-1.1097878 153.08539051 -3.18858171 154.73609456 -5.265625 156.390625 C-14.74746659 163.9131154 -24.4260807 170.93950831 -34.61669922 177.47167969 C-36.25259338 178.52071651 -37.88422474 179.57642173 -39.51220703 180.63769531 C-65.89874114 197.81012148 -93.32622849 208.65753551 -125 210 C-126.25876953 210.061875 -126.25876953 210.061875 -127.54296875 210.125 C-166.95354928 211.1026268 -200.36141355 194.99491454 -232 173 C-233.0194873 172.29544678 -233.0194873 172.29544678 -234.05957031 171.57666016 C-242.97839162 165.39445284 -251.5377757 158.79017034 -260 152 C-260.969375 151.2265625 -261.93875 150.453125 -262.9375 149.65625 C-268.53583274 145.13941336 -273.91555626 140.43570697 -279.19921875 135.5546875 C-281.32871706 133.61229992 -283.48129557 131.72727659 -285.66796875 129.8515625 C-290.88393306 125.30103456 -295.74282435 120.40298037 -300.625 115.5 C-301.54023438 114.58863281 -302.45546875 113.67726563 -303.3984375 112.73828125 C-305.16365205 110.97051581 -306.91719473 109.19099609 -308.65722656 107.3984375 C-310.08910441 105.93253838 -311.54895513 104.49254933 -313.05371094 103.1015625 C-316.98042365 99.23059529 -316.98042365 99.23059529 -317.03344727 95.89746094 C-316.55911831 93.48430909 -315.85714898 91.30440277 -315 89 C-314.74879395 88.25685547 -314.49758789 87.51371094 -314.23876953 86.74804688 C-313.40716939 84.38717837 -312.50142465 82.07022049 -311.5625 79.75 C-311.04296753 78.46561035 -311.04296753 78.46561035 -310.51293945 77.15527344 C-298.76854993 48.84524882 -280.95458368 21.511069 -257 2 C-255.94650737 1.1108041 -254.89313272 0.2214684 -253.83984375 -0.66796875 C-227.95237054 -22.23671617 -198.66549649 -35.45484932 -166 -43 C-165.17886719 -43.18997559 -164.35773438 -43.37995117 -163.51171875 -43.57568359 C-107.04153809 -55.79062498 -43.16798938 -37.45653233 0 0 Z " fill="#31B9F1" transform="translate(512,534)"/>
<path d="M0 0 C55.19462251 -1.05383527 105.40815854 19.58834126 145.8359375 56.4375 C146.58593018 57.12005859 146.58593018 57.12005859 147.35107422 57.81640625 C160.1861806 69.78723914 171.22514106 84.86836376 179.7734375 100.125 C180.18803223 100.85074219 180.60262695 101.57648438 181.02978516 102.32421875 C194.85903549 126.72819271 207.17066903 157.02207102 206.8359375 185.5 C206.83142578 186.23605469 206.82691406 186.97210938 206.82226562 187.73046875 C206.81058892 189.52868158 206.79265761 191.32685197 206.7734375 193.125 C203.19961617 193.19146592 199.94788864 193.09658591 196.4609375 192.3125 C184.60826705 189.81344298 172.88971888 187.73608202 160.7734375 187.125 C160.7734375 186.465 160.7734375 185.805 160.7734375 185.125 C159.97164062 185.14820313 159.16984375 185.17140625 158.34375 185.1953125 C151.24301025 185.30802265 144.3295374 185.01592475 137.2734375 184.25 C136.52078613 184.17152832 135.76813477 184.09305664 134.99267578 184.01220703 C126.21183811 182.99127054 126.21183811 182.99127054 122.7734375 181.125 C121.50340969 178.32112217 120.67177904 175.93845487 119.8984375 173 C110.47933528 141.44063065 88.3511281 114.95355832 59.4609375 99.3125 C30.89482378 84.46203403 -2.12366676 81.81828587 -32.8515625 91.3125 C-66.29246545 103.23522022 -91.80359334 126.8102052 -107.16113281 158.72314453 C-110.13880904 165.43588026 -112.38665474 172.45445162 -114.61328125 179.4453125 C-115.2265625 181.125 -115.2265625 181.125 -116.2265625 182.125 C-118.80023606 182.45228686 -121.35880976 182.72209993 -123.94140625 182.95703125 C-125.58222344 183.11501037 -127.22300999 183.27330804 -128.86376953 183.43188477 C-129.72923401 183.51415314 -130.59469849 183.59642151 -131.48638916 183.68118286 C-161.95508645 186.53271654 -161.95508645 186.53271654 -191.90625 192.609375 C-194.2265625 193.125 -194.2265625 193.125 -198.2265625 193.125 C-198.12509858 142.03791634 -173.91510633 94.55887937 -139.2265625 58.125 C-138.61296875 57.47015625 -137.999375 56.8153125 -137.3671875 56.140625 C-101.76428859 19.18142518 -50.23215676 1.94603997 0 0 Z " fill="#205693" transform="translate(379.2265625,22.875)"/>
<path d="M0 0 C18.39814317 16.24234148 32.60706913 38.54930983 34.71582031 63.48583984 C35.90469368 85.39038356 33.43041428 105.30889116 22.39941406 124.46582031 C21.54005289 125.96296824 20.72926319 127.48776037 19.92578125 129.015625 C10.83218958 145.06033911 -6.29134997 159.68154991 -23.56640625 166.1484375 C-27.16807113 167.13237033 -30.797363 167.96253777 -34.44140625 168.7734375 C-36.33535185 169.19995608 -38.22862461 169.6294774 -40.12109375 170.0625 C-40.95108887 170.2476416 -41.78108398 170.4327832 -42.63623047 170.62353516 C-44.55811365 170.97455463 -44.55811365 170.97455463 -45.56640625 172.1484375 C-51.29268208 173.05157496 -56.90036027 173.34188924 -62.69140625 173.3359375 C-63.51527832 173.33513184 -64.33915039 173.33432617 -65.18798828 173.33349609 C-74.25805066 173.24383275 -83.10090242 172.60039052 -91.56640625 169.1484375 C-93.14245166 168.81965982 -94.72668567 168.5280006 -96.31640625 168.2734375 C-103.68073566 166.86652084 -109.33231936 164.55699395 -114.56640625 159.1484375 C-116.20367194 158.49353123 -117.84149339 157.83990679 -119.484375 157.19921875 C-123.9589451 154.94094603 -127.9398463 151.58527802 -131.56640625 148.1484375 C-131.56640625 147.4884375 -131.56640625 146.8284375 -131.56640625 146.1484375 C-132.11554688 145.9525 -132.6646875 145.7565625 -133.23046875 145.5546875 C-136.55503337 143.55327736 -138.62026774 140.68848085 -140.94140625 137.6484375 C-141.67157959 136.70013062 -141.67157959 136.70013062 -142.41650391 135.73266602 C-158.3363572 114.78702931 -165.28274456 88.16369122 -162.140625 62.015625 C-157.79122448 35.59902062 -144.37450206 12.01443979 -122.56640625 -3.8515625 C-111.40541731 -11.64501167 -99.77944265 -17.47525836 -86.56640625 -20.8515625 C-85.68210937 -21.0784375 -84.7978125 -21.3053125 -83.88671875 -21.5390625 C-54.34978573 -27.703292 -23.02454456 -19.23009962 0 0 Z " fill="#2AB4EF" transform="translate(448.56640625,282.8515625)"/>
<path d="M0 0 C3.79197449 0.13844847 7.5834859 0.28700744 11.375 0.4375 C12.45523438 0.47681641 13.53546875 0.51613281 14.6484375 0.55664062 C15.6796875 0.59853516 16.7109375 0.64042969 17.7734375 0.68359375 C18.72653809 0.72025146 19.67963867 0.75690918 20.66162109 0.79467773 C23 1 23 1 25 2 C28.63386433 2.31713725 32.26847692 2.51171036 35.91015625 2.71875 C39 3 39 3 40 4 C41.99325533 4.3529723 43.99529679 4.65674874 46 4.9375 C61.1940407 7.1940407 61.1940407 7.1940407 64 10 C61.07651315 9.5130664 58.15310882 9.02569583 55.23022461 8.53515625 C37.70199868 5.52545657 37.70199868 5.52545657 20 4 C20 3.34 20 2.68 20 2 C19.05898438 2.01160156 18.11796875 2.02320313 17.1484375 2.03515625 C15.90320313 2.04417969 14.65796875 2.05320313 13.375 2.0625 C12.14523437 2.07410156 10.91546875 2.08570313 9.6484375 2.09765625 C6.32276209 2.00863924 3.25952412 1.63686087 0 1 C0 0.67 0 0.34 0 0 Z " fill="#145DA3" transform="translate(520,206)"/>
<path d="M0 0 C0 0.99 0 1.98 0 3 C-0.99 3 -1.98 3 -3 3 C-2.01 2.01 -1.02 1.02 0 0 Z M-5 4 C-4.34 4.33 -3.68 4.66 -3 5 C-3.99 5.99 -4.98 6.98 -6 8 C-6.66 7.67 -7.32 7.34 -8 7 C-7.01 6.01 -6.02 5.02 -5 4 Z M-10 8 C-9.34 8.33 -8.68 8.66 -8 9 C-10.27787292 12.22698664 -12.61856186 14.5488351 -15.8125 16.8125 C-19.59162695 19.53403545 -22.4891052 22.59376802 -25.45703125 26.16796875 C-26.89529358 27.8756777 -28.39830579 29.44640471 -30 31 C-30.66 30.67 -31.32 30.34 -32 30 C-31.55269531 29.56429687 -31.10539063 29.12859375 -30.64453125 28.6796875 C-27.79624253 25.87391056 -25.08707804 23.10717297 -22.5625 20 C-19.85218366 16.82694672 -16.94345168 14.21011959 -13.76953125 11.515625 C-11.91655093 9.96792368 -11.91655093 9.96792368 -10 8 Z " fill="#42B9F0" transform="translate(267,526)"/>
<path d="M0 0 C5.41798672 0.69165788 10.6822785 1.75799248 16 3 C16 3.33 16 3.66 16 4 C10.21101581 4.20674944 5.57067277 3.59162079 0 2 C0 1.34 0 0.68 0 0 Z " fill="#0264AB" transform="translate(354,453)"/>
<path d="M0 0 C0.33 0.66 0.66 1.32 1 2 C0.00390625 4.1640625 0.00390625 4.1640625 -1.4375 6.625 C-1.91058594 7.44226563 -2.38367188 8.25953125 -2.87109375 9.1015625 C-3.24363281 9.72804688 -3.61617187 10.35453125 -4 11 C-4.65234375 9.234375 -4.65234375 9.234375 -5 7 C-4.00390625 5.078125 -4.00390625 5.078125 -2.5625 3.25 C-2.08941406 2.63640625 -1.61632812 2.0228125 -1.12890625 1.390625 C-0.75636719 0.93171875 -0.38382813 0.4728125 0 0 Z " fill="#0D65A4" transform="translate(214,583)"/>
<path d="M0 0 C0.66 0.33 1.32 0.66 2 1 C-0.3125 3.5 -0.3125 3.5 -3 6 C-3.99 6 -4.98 6 -6 6 C-4 4 -2 2 0 0 Z " fill="#0466AE" transform="translate(449,433)"/>
</svg>
