<?xml version="1.0" encoding="utf-8"?>
<!-- Generator: Adobe Illustrator 16.0.4, SVG Export Plug-In . SVG Version: 6.00 Build 0)  -->
<!DOCTYPE svg PUBLIC "-//W3C//DTD SVG 1.1//EN" "http://www.w3.org/Graphics/SVG/1.1/DTD/svg11.dtd">
<svg version="1.1" id="Layer_1" xmlns="http://www.w3.org/2000/svg" xmlns:xlink="http://www.w3.org/1999/xlink" x="0px" y="0px"
	 width="192px" height="49px" viewBox="0 0 192 49" enable-background="new 0 0 192 49" xml:space="preserve">
<g id="Layer_2" display="none">
	<rect x="29.238" y="191.286" display="inline" fill="#323031" width="553.968" height="387.301"/>
</g>
<g id="Layer_1_1_">
	<path fill="#22A5FF" d="M104.138,12.741v2.237l-15.4,18.982v0.057h15.721v2.231H85.364v-2.288l15.365-18.931v-0.052H85.817v-2.237
		H104.138z M115.57,12.5c4.625,0,7.519,0.649,8.676,1.947c1.156,1.297,1.743,4.541,1.743,9.731c0,5.594-0.557,9.046-1.668,10.358
		c-1.109,1.31-4.028,1.964-8.751,1.964c-4.695,0-7.612-0.652-8.74-1.952c-1.129-1.299-1.689-4.648-1.689-10.059v-1.654l0.037-2.22
		c0-3.127,0.724-5.258,2.192-6.399C108.837,13.074,111.567,12.5,115.57,12.5z M115.552,14.737c-3.869,0-6.135,0.415-6.788,1.239
		c-0.658,0.831-0.991,3.666-0.991,8.512c0,4.86,0.333,7.701,0.991,8.531c0.653,0.828,2.92,1.232,6.788,1.232
		c3.881,0,6.154-0.404,6.816-1.232c0.653-0.83,0.981-3.671,0.981-8.531v-1.53l-0.02-2.226c0-2.596-0.449-4.244-1.354-4.944
		C121.068,15.087,118.92,14.737,115.552,14.737z M138.09,12.5c4.618,0,7.512,0.649,8.672,1.947c1.162,1.297,1.738,4.541,1.738,9.731
		c0,5.594-0.56,9.046-1.667,10.358c-1.109,1.31-4.022,1.964-8.743,1.964c-4.703,0-7.609-0.652-8.738-1.952
		c-1.129-1.299-1.702-4.648-1.702-10.059v-1.654l0.04-2.22c0-3.127,0.734-5.258,2.202-6.399C131.349,13.074,134.09,12.5,138.09,12.5
		z M138.07,14.737c-3.873,0-6.134,0.415-6.794,1.239c-0.664,0.831-0.983,3.666-0.983,8.512c0,4.86,0.319,7.701,0.983,8.531
		c0.66,0.828,2.921,1.232,6.794,1.232c3.885,0,6.155-0.404,6.806-1.232c0.662-0.83,0.993-3.671,0.993-8.531v-1.53l-0.02-2.226
		c0-2.596-0.459-4.244-1.364-4.944C143.575,15.087,141.44,14.737,138.07,14.737z M63.529,36.25L50.983,24.075L62.17,12.741H58.6
		L48.583,22.99v0.021v2.237v0.017l11.167,10.985L63.529,36.25L63.529,36.25z M43.5,12.741V36.25h2.547V12.741H43.5z M68.174,31.274
		l-0.449,1.182l0.454-1.182H68.174z M82.46,36.25h2.887l-9.143-23.509h-3.87L63.368,36.25h2.921l1.396-3.689l0,0l0.04-0.104
		l0.449-1.181h0.005l1.604-4.204l0,0l4.54-12.158l4.596,12.158l0,0l1.63,4.203h0.01L82.46,36.25z"/>
</g>
</svg>
